<svg width="196" height="196" viewBox="0 0 196 196" fill="none" xmlns="http://www.w3.org/2000/svg">
<circle cx="98" cy="98" r="95" fill="white" stroke="black" stroke-width="6"/>
<circle cx="97.5" cy="96.5" r="63.9" fill="white" stroke="black" stroke-width="3.2" stroke-dasharray="12 12"/>
<rect x="17" y="84" width="12" height="12" fill="#D9D9D9"/>
<rect x="7" y="93" width="12" height="12" fill="#D9D9D9"/>
<rect x="17" y="105" width="12" height="12" fill="#D9D9D9"/>
<rect x="7" y="110" width="12" height="12" fill="#D9D9D9"/>
<rect x="17" y="116" width="12" height="12" fill="#D9D9D9"/>
<rect x="23" y="126" width="12" height="12" fill="#D9D9D9"/>
<rect x="17" y="132" width="12" height="12" fill="#D9D9D9"/>
<rect x="33" y="135" width="12" height="12" fill="#D9D9D9"/>
<rect x="25" y="144" width="12" height="12" fill="#D9D9D9"/>
<rect x="35" y="155" width="12" height="12" fill="#D9D9D9"/>
<rect x="37" y="147" width="12" height="12" fill="#D9D9D9"/>
<rect x="48" y="153" width="12" height="12" fill="#D9D9D9"/>
<rect x="57" y="163" width="12" height="12" fill="#D9D9D9"/>
<rect x="47" y="161" width="12" height="12" fill="#D9D9D9"/>
<rect x="71" y="161" width="12" height="12" fill="#D9D9D9"/>
<rect x="65" y="173" width="12" height="12" fill="#D9D9D9"/>
<rect x="75" y="173" width="12" height="12" fill="#D9D9D9"/>
<rect x="87" y="175" width="12" height="12" fill="#D9D9D9"/>
<rect x="87" y="165" width="12" height="12" fill="#D9D9D9"/>
<rect x="99" y="163" width="12" height="12" fill="#D9D9D9"/>
<rect x="99" y="173" width="12" height="12" fill="#D9D9D9"/>
<rect x="114" y="162" width="12" height="12" fill="#D9D9D9"/>
<rect x="112" y="171" width="12" height="12" fill="#D9D9D9"/>
<rect x="123" y="157" width="12" height="12" fill="#D9D9D9"/>
<rect x="132" y="151" width="12" height="12" fill="#D9D9D9"/>
<rect x="141" y="147" width="12" height="12" fill="#D9D9D9"/>
<rect x="150" y="135" width="12" height="12" fill="#D9D9D9"/>
<rect x="157" y="127" width="12" height="12" fill="#D9D9D9"/>
<rect x="161" y="117" width="12" height="12" fill="#D9D9D9"/>
<rect x="169" y="120" width="12" height="12" fill="#D9D9D9"/>
<rect x="166" y="133" width="12" height="12" fill="#D9D9D9"/>
<rect x="157" y="141" width="11" height="12" fill="#D9D9D9"/>
<rect x="150" y="155" width="11" height="12" fill="#D9D9D9"/>
<rect x="138" y="161" width="11" height="12" fill="#D9D9D9"/>
<rect x="124" y="167" width="11" height="12" fill="#D9D9D9"/>
<rect x="11" y="72" width="12" height="12" fill="#D9D9D9"/>
<rect x="17" y="60" width="12" height="12" fill="#D9D9D9"/>
<rect x="24" y="48" width="12" height="12" fill="#D9D9D9"/>
<rect x="30" y="39" width="12" height="12" fill="#D9D9D9"/>
<rect x="33" y="45" width="12" height="12" fill="#D9D9D9"/>
<rect x="35" y="33" width="12" height="12" fill="#D9D9D9"/>
<rect x="44" y="25" width="12" height="12" fill="#D9D9D9"/>
<rect x="49" y="25" width="12" height="12" fill="#D9D9D9"/>
<rect x="52" y="21" width="12" height="12" fill="#D9D9D9"/>
<rect x="59" y="15" width="12" height="12" fill="#D9D9D9"/>
<rect x="65" y="19" width="12" height="12" fill="#D9D9D9"/>
<rect x="71" y="14" width="12" height="12" fill="#D9D9D9"/>
<rect x="75" y="15" width="12" height="12" fill="#D9D9D9"/>
<rect x="81" y="9" width="12" height="12" fill="#D9D9D9"/>
<rect x="85" y="13" width="12" height="12" fill="#D9D9D9"/>
<rect x="98" y="9" width="12" height="12" fill="#D9D9D9"/>
<rect x="109" y="15" width="12" height="12" fill="#D9D9D9"/>
<rect x="120" y="14" width="12" height="12" fill="#D9D9D9"/>
<rect x="129" y="25" width="12" height="12" fill="#D9D9D9"/>
<rect x="137" y="25" width="12" height="12" fill="#D9D9D9"/>
<rect x="143" y="39" width="12" height="12" fill="#D9D9D9"/>
<rect x="155" y="37" width="12" height="12" fill="#D9D9D9"/>
<rect x="156" y="49" width="12" height="12" fill="#D9D9D9"/>
<rect x="167" y="53" width="12" height="12" fill="#D9D9D9"/>
<rect x="162" y="66" width="12" height="12" fill="#D9D9D9"/>
<rect x="173" y="72" width="12" height="12" fill="#D9D9D9"/>
<rect x="167" y="80" width="12" height="12" fill="#D9D9D9"/>
<rect x="175" y="88" width="12" height="12" fill="#D9D9D9"/>
<rect x="168" y="98" width="12" height="12" fill="#D9D9D9"/>
<rect x="173" y="105" width="12" height="12" fill="#D9D9D9"/>
<path d="M16.5 93L19.3064 101.637H28.3882L21.0409 106.975L23.8473 115.613L16.5 110.275L9.15268 115.613L11.9591 106.975L4.61179 101.637H13.6936L16.5 93Z" fill="black"/>
<path d="M29.5 127L32.3064 135.637H41.3882L34.0409 140.975L36.8473 149.613L29.5 144.275L22.1527 149.613L24.9591 140.975L17.6118 135.637H26.6936L29.5 127Z" fill="black"/>
<path d="M174.5 93L177.306 101.637H186.388L179.041 106.975L181.847 115.613L174.5 110.275L167.153 115.613L169.959 106.975L162.612 101.637H171.694L174.5 93Z" fill="black"/>
<path d="M163.5 127L166.306 135.637H175.388L168.041 140.975L170.847 149.613L163.5 144.275L156.153 149.613L158.959 140.975L151.612 135.637H160.694L163.5 127Z" fill="black"/>
<path d="M138.5 152L141.306 160.637H150.388L143.041 165.975L145.847 174.613L138.5 169.275L131.153 174.613L133.959 165.975L126.612 160.637H135.694L138.5 152Z" fill="black"/>
<path d="M54.5 152L57.3064 160.637H66.3882L59.0409 165.975L61.8473 174.613L54.5 169.275L47.1527 174.613L49.9591 165.975L42.6118 160.637H51.6936L54.5 152Z" fill="black"/>
<path d="M100.5 164L103.306 172.637H112.388L105.041 177.975L107.847 186.613L100.5 181.275L93.1527 186.613L95.9591 177.975L88.6118 172.637H97.6936L100.5 164Z" fill="black"/>
<path d="M22.1998 64.4952C21.737 64.4268 21.3019 64.4845 20.8945 64.6682C20.4871 64.852 20.1261 65.1525 19.8114 65.5698C19.463 66.0318 19.2582 66.5204 19.1972 67.0354C19.1361 67.5505 19.2234 68.0547 19.4592 68.5481C19.695 69.0415 20.0663 69.4793 20.573 69.8614C21.0946 70.2548 21.6251 70.4969 22.1643 70.588C22.7092 70.6715 23.2236 70.6094 23.7076 70.4016C24.1916 70.1938 24.6163 69.8477 24.9815 69.3633C25.4311 68.7671 25.6426 68.161 25.6163 67.5449C25.5824 66.9232 25.3273 66.3392 24.8508 65.7929L22.8278 68.4757L21.6318 67.5738L24.818 63.3484L26.1817 64.3768C26.647 64.8913 26.9815 65.4942 27.185 66.1854C27.3885 66.8766 27.4268 67.601 27.2997 68.3585C27.1709 69.103 26.8536 69.8106 26.3478 70.4813C25.7802 71.2339 25.0984 71.7893 24.3023 72.1475C23.5043 72.4927 22.6714 72.6127 21.8037 72.5078C20.9416 72.3954 20.1268 72.0499 19.3592 71.471C18.5916 70.8922 18.0353 70.2039 17.6902 69.4059C17.3432 68.5949 17.2297 67.7611 17.3495 66.9046C17.4675 66.035 17.8075 65.2277 18.3694 64.4824C19.0325 63.6031 19.8246 63.0022 20.7457 62.6798C21.6594 62.3518 22.5964 62.3571 23.5569 62.6956L22.1998 64.4952Z" fill="black"/>
<path d="M34.5807 56.4441L30.275 55.6631L29.6836 56.373L32.6092 58.8105L31.3547 60.3163L23.8469 54.0613L26.1948 51.2432C26.6787 50.6624 27.1949 50.2542 27.7434 50.0187C28.2847 49.7773 28.8147 49.7025 29.3333 49.7945C29.8507 49.8733 30.3246 50.0919 30.7548 50.4504C31.2496 50.8626 31.5783 51.3794 31.7409 52.0008C31.8963 52.6162 31.8133 53.2699 31.492 53.9618L36.0325 54.7016L34.5807 56.4441ZM28.5542 55.432L29.6027 54.1736C29.9432 53.7648 30.1003 53.3794 30.074 53.0173C30.0405 52.6493 29.848 52.3189 29.4967 52.0261C29.1525 51.7394 28.8035 51.6187 28.4498 51.6642C28.0889 51.7036 27.7382 51.9278 27.3977 52.3365L26.3492 53.5949L28.5542 55.432Z" fill="black"/>
<path d="M35.2595 42.563L36.8874 44.394L39.3461 42.2079L40.3787 43.3693L37.92 45.5553L39.6409 47.4909L42.4135 45.0258L43.474 46.2185L39.2366 49.986L32.7343 42.6727L36.9716 38.9052L38.0321 40.0979L35.2595 42.563Z" fill="black"/>
<path d="M45.0778 34.7308L46.5372 36.6986L49.1798 34.7388L50.1055 35.987L47.4629 37.9468L49.0058 40.0271L51.9857 37.8171L52.9364 39.099L48.3822 42.4766L42.5527 34.6164L47.107 31.2388L48.0577 32.5207L45.0778 34.7308Z" fill="black"/>
<path d="M80.2001 18.1901L80.4947 20.6223L83.7608 20.2267L83.9476 21.7695L80.6815 22.165L80.9929 24.7362L84.676 24.2902L84.8679 25.8746L79.239 26.5563L78.0624 16.8413L83.6913 16.1596L83.8832 17.744L80.2001 18.1901Z" fill="black"/>
<path d="M64.0961 31.7573L62.2702 32.4696L55.6984 27.8352L58.1357 34.0826L56.3097 34.795L52.753 25.6782L54.5789 24.9659L61.1558 29.6133L58.7134 23.3529L60.5394 22.6405L64.0961 31.7573Z" fill="black"/>
<path d="M98.5726 25.0519L96.6157 25.1609L91.8115 18.7122L92.1845 25.4078L90.2276 25.5168L89.6832 15.7459L91.6402 15.6369L96.4451 22.0997L96.0713 15.3901L98.0283 15.281L98.5726 25.0519Z" fill="black"/>
<path d="M72.3856 17.903L72.8168 19.4251L70.3115 20.135L72.5441 28.0148L70.6584 28.5491L68.4257 20.6693L65.9203 21.3792L65.4891 19.8571L72.3856 17.903Z" fill="black"/>
<path d="M117.313 23.6266C116.642 23.5065 116.056 23.2831 115.555 22.9563C115.064 22.6312 114.7 22.2248 114.465 21.7371C114.23 21.2494 114.161 20.7107 114.257 20.121L116.324 20.4912C116.281 20.8912 116.363 21.2282 116.57 21.5023C116.786 21.7781 117.114 21.9554 117.555 22.0344C118.005 22.115 118.378 22.0727 118.673 21.9075C118.97 21.733 119.15 21.4713 119.212 21.1222C119.263 20.8374 119.218 20.5875 119.076 20.3725C118.934 20.1575 118.739 19.9756 118.491 19.8268C118.254 19.6705 117.917 19.4869 117.48 19.276C116.889 18.9804 116.411 18.7099 116.047 18.4646C115.694 18.2118 115.407 17.8807 115.187 17.4714C114.977 17.0546 114.926 16.543 115.035 15.9366C115.137 15.367 115.368 14.8964 115.728 14.5248C116.089 14.1532 116.546 13.9032 117.1 13.7748C117.656 13.6373 118.264 13.6277 118.926 13.7462C119.918 13.9239 120.678 14.3113 121.207 14.9084C121.746 15.498 121.97 16.2304 121.88 17.1055L119.758 16.7255C119.798 16.3915 119.705 16.0949 119.476 15.8359C119.258 15.5694 118.933 15.3974 118.502 15.3201C118.125 15.2526 117.805 15.2948 117.54 15.4466C117.285 15.6001 117.125 15.8605 117.059 16.228C117.013 16.4853 117.057 16.716 117.191 16.9201C117.336 17.1168 117.523 17.2924 117.751 17.4471C117.99 17.5942 118.327 17.7778 118.762 17.9979C119.354 18.2935 119.831 18.5685 120.193 18.823C120.555 19.0775 120.845 19.414 121.064 19.8325C121.283 20.251 121.339 20.7588 121.232 21.356C121.14 21.8704 120.922 22.3243 120.576 22.7176C120.231 23.1109 119.777 23.3947 119.215 23.569C118.654 23.7341 118.02 23.7533 117.313 23.6266Z" fill="black"/>
<path d="M167.266 79.1147C166.936 78.5188 166.74 77.9235 166.677 77.3287C166.618 76.7421 166.704 76.2037 166.934 75.7135C167.164 75.2233 167.538 74.8294 168.056 74.5316L169.074 76.3684C168.736 76.5875 168.527 76.8637 168.445 77.1972C168.367 77.5389 168.437 77.9057 168.654 78.2975C168.876 78.6976 169.144 78.9598 169.458 79.0843C169.781 79.2043 170.097 79.1784 170.408 79.0064C170.661 78.8662 170.826 78.6733 170.903 78.4277C170.981 78.1821 170.999 77.916 170.957 77.6295C170.928 77.3466 170.858 76.9695 170.746 76.4979C170.602 75.8523 170.51 75.3111 170.47 74.8741C170.444 74.4407 170.519 74.0093 170.697 73.5798C170.888 73.1539 171.253 72.7916 171.792 72.493C172.298 72.2125 172.809 72.0948 173.325 72.1397C173.84 72.1847 174.323 72.3814 174.772 72.73C175.23 73.074 175.621 73.5399 175.947 74.1277C176.436 75.0093 176.615 75.8435 176.486 76.6303C176.369 77.4207 175.943 78.0571 175.207 78.5395L174.162 76.6537C174.447 76.4745 174.617 76.2145 174.674 75.8737C174.743 75.5366 174.671 75.1762 174.459 74.7925C174.273 74.4578 174.038 74.2359 173.754 74.1268C173.474 74.0259 173.17 74.0659 172.844 74.2469C172.615 74.3736 172.464 74.5534 172.391 74.7863C172.33 75.0228 172.311 75.2784 172.335 75.5532C172.372 75.8315 172.443 76.2087 172.546 76.6847C172.691 77.3303 172.779 77.8739 172.81 78.3154C172.841 78.7569 172.764 79.1947 172.577 79.6287C172.391 80.0628 172.033 80.4268 171.502 80.7209C171.045 80.9743 170.555 81.0912 170.032 81.0716C169.509 81.052 169.002 80.8793 168.512 80.5533C168.03 80.2228 167.615 79.7433 167.266 79.1147Z" fill="black"/>
<path d="M139.88 35.1535L139.393 30.8046L138.544 30.4416L137.048 33.9434L135.245 33.1734L139.084 24.1871L142.457 25.6282C143.153 25.9252 143.692 26.3027 144.075 26.7606C144.461 27.2099 144.685 27.6962 144.745 28.2194C144.818 28.7378 144.745 29.2544 144.525 29.7694C144.272 30.3616 143.871 30.8247 143.322 31.1587C142.777 31.484 142.127 31.592 141.372 31.4826L141.966 36.0445L139.88 35.1535ZM139.121 29.0898L140.627 29.7334C141.117 29.9424 141.531 29.9823 141.87 29.8533C142.213 29.7156 142.475 29.4365 142.654 29.016C142.83 28.604 142.846 28.2351 142.701 27.9093C142.56 27.5748 142.244 27.3031 141.755 27.0941L140.249 26.4506L139.121 29.0898Z" fill="black"/>
<path d="M155.349 37.0908L146.543 42.6396L144.658 41.186L147.788 31.2594L149.451 32.5419L146.834 40.3361L153.697 35.8168L155.349 37.0908Z" fill="black"/>
<path d="M159.633 42.683L152.406 49.261L151.087 47.8115L158.313 41.2336L159.633 42.683Z" fill="black"/>
<path d="M158.048 49.4089C158.82 48.8364 159.638 48.4974 160.501 48.3921C161.377 48.2886 162.206 48.4117 162.988 48.7614C163.783 49.113 164.458 49.6637 165.014 50.4134C165.665 51.2906 166.009 52.2258 166.049 53.2191C166.088 54.2124 165.808 55.1349 165.207 55.9865L163.865 54.1759C164.107 53.718 164.199 53.2547 164.142 52.7858C164.09 52.3245 163.906 51.8801 163.589 51.4527C163.25 50.9954 162.838 50.6674 162.354 50.4687C161.883 50.272 161.377 50.2169 160.837 50.3035C160.303 50.3977 159.773 50.6393 159.248 51.0284C158.731 51.4119 158.346 51.8485 158.093 52.338C157.853 52.8295 157.755 53.3321 157.799 53.8456C157.856 54.3612 158.054 54.8476 158.393 55.3049C158.71 55.7323 159.082 56.0377 159.508 56.2211C159.948 56.4065 160.422 56.4501 160.93 56.3522L162.272 58.1628C161.275 58.4952 160.308 58.4982 159.369 58.172C158.443 57.8476 157.652 57.2431 156.996 56.3584C156.44 55.6087 156.105 54.8051 155.993 53.9477C155.893 53.0922 156.016 52.2631 156.362 51.4605C156.714 50.6653 157.275 49.9815 158.048 49.4089Z" fill="black"/>
<path d="M130.076 19.658L129.345 21.9964L132.485 22.9779L132.021 24.4611L128.881 23.4796L128.108 25.9517L131.649 27.0585L131.173 28.5818L125.762 26.8903L128.681 17.5499L134.093 19.2414L133.617 20.7648L130.076 19.658Z" fill="black"/>
<path d="M169.376 60.4791L167.384 61.9047L169.298 64.5803L168.034 65.4846L166.12 62.809L164.014 64.3161L166.172 67.3333L164.875 68.262L161.575 63.6508L169.534 57.9564L172.833 62.5675L171.535 63.4963L169.376 60.4791Z" fill="black"/>
<path d="M49.248 71.072C48.8853 71.072 48.56 71.008 48.272 70.88C47.984 70.7467 47.7547 70.568 47.584 70.344C47.4187 70.12 47.328 69.872 47.312 69.6H48.44C48.4613 69.7707 48.544 69.912 48.688 70.024C48.8373 70.136 49.0213 70.192 49.24 70.192C49.4533 70.192 49.6187 70.1493 49.736 70.064C49.8587 69.9787 49.92 69.8693 49.92 69.736C49.92 69.592 49.8453 69.4853 49.696 69.416C49.552 69.3413 49.32 69.2613 49 69.176C48.6693 69.096 48.3973 69.0133 48.184 68.928C47.976 68.8427 47.7947 68.712 47.64 68.536C47.4907 68.36 47.416 68.1227 47.416 67.824C47.416 67.5787 47.4853 67.3547 47.624 67.152C47.768 66.9493 47.9707 66.7893 48.232 66.672C48.4987 66.5547 48.8107 66.496 49.168 66.496C49.696 66.496 50.1173 66.6293 50.432 66.896C50.7467 67.1573 50.92 67.512 50.952 67.96H49.88C49.864 67.784 49.7893 67.6453 49.656 67.544C49.528 67.4373 49.3547 67.384 49.136 67.384C48.9333 67.384 48.776 67.4213 48.664 67.496C48.5573 67.5707 48.504 67.6747 48.504 67.808C48.504 67.9573 48.5787 68.072 48.728 68.152C48.8773 68.2267 49.1093 68.304 49.424 68.384C49.744 68.464 50.008 68.5467 50.216 68.632C50.424 68.7173 50.6027 68.8507 50.752 69.032C50.9067 69.208 50.9867 69.4427 50.992 69.736C50.992 69.992 50.92 70.2213 50.776 70.424C50.6373 70.6267 50.4347 70.7867 50.168 70.904C49.9067 71.016 49.6 71.072 49.248 71.072ZM54.4074 66.504C54.7434 66.504 55.042 66.5787 55.3034 66.728C55.5647 66.872 55.7674 67.088 55.9114 67.376C56.0607 67.6587 56.1354 68 56.1354 68.4V71H55.0154V68.552C55.0154 68.2 54.9274 67.9307 54.7514 67.744C54.5754 67.552 54.3354 67.456 54.0314 67.456C53.722 67.456 53.4767 67.552 53.2954 67.744C53.1194 67.9307 53.0314 68.2 53.0314 68.552V71H51.9114V65.08H53.0314V67.12C53.1754 66.928 53.3674 66.7787 53.6074 66.672C53.8474 66.56 54.114 66.504 54.4074 66.504ZM56.9124 68.768C56.9124 68.32 57.0004 67.9227 57.1764 67.576C57.3578 67.2293 57.6004 66.9627 57.9044 66.776C58.2138 66.5893 58.5578 66.496 58.9364 66.496C59.2671 66.496 59.5551 66.5627 59.8004 66.696C60.0511 66.8293 60.2511 66.9973 60.4004 67.2V66.568H61.5284V71H60.4004V70.352C60.2564 70.56 60.0564 70.7333 59.8004 70.872C59.5498 71.0053 59.2591 71.072 58.9284 71.072C58.5551 71.072 58.2138 70.976 57.9044 70.784C57.6004 70.592 57.3578 70.3227 57.1764 69.976C57.0004 69.624 56.9124 69.2213 56.9124 68.768ZM60.4004 68.784C60.4004 68.512 60.3471 68.28 60.2404 68.088C60.1338 67.8907 59.9898 67.7413 59.8084 67.64C59.6271 67.5333 59.4324 67.48 59.2244 67.48C59.0164 67.48 58.8244 67.5307 58.6484 67.632C58.4724 67.7333 58.3284 67.8827 58.2164 68.08C58.1098 68.272 58.0564 68.5013 58.0564 68.768C58.0564 69.0347 58.1098 69.2693 58.2164 69.472C58.3284 69.6693 58.4724 69.8213 58.6484 69.928C58.8298 70.0347 59.0218 70.088 59.2244 70.088C59.4324 70.088 59.6271 70.0373 59.8084 69.936C59.9898 69.8293 60.1338 69.68 60.2404 69.488C60.3471 69.2907 60.4004 69.056 60.4004 68.784ZM68.1263 66.504C68.6703 66.504 69.1076 66.672 69.4383 67.008C69.7743 67.3387 69.9423 67.8027 69.9423 68.4V71H68.8223V68.552C68.8223 68.2053 68.7343 67.9413 68.5583 67.76C68.3823 67.5733 68.1423 67.48 67.8383 67.48C67.5343 67.48 67.2916 67.5733 67.1103 67.76C66.9343 67.9413 66.8463 68.2053 66.8463 68.552V71H65.7263V68.552C65.7263 68.2053 65.6383 67.9413 65.4623 67.76C65.2863 67.5733 65.0463 67.48 64.7423 67.48C64.433 67.48 64.1876 67.5733 64.0063 67.76C63.8303 67.9413 63.7423 68.2053 63.7423 68.552V71H62.6223V66.568H63.7423V67.104C63.8863 66.9173 64.0703 66.7707 64.2943 66.664C64.5236 66.5573 64.7743 66.504 65.0463 66.504C65.393 66.504 65.7023 66.5787 65.9743 66.728C66.2463 66.872 66.457 67.08 66.6063 67.352C66.7503 67.096 66.9583 66.8907 67.2303 66.736C67.5076 66.5813 67.8063 66.504 68.1263 66.504ZM74.0314 67.216C74.1754 67.0027 74.3727 66.8293 74.6234 66.696C74.8794 66.5627 75.17 66.496 75.4954 66.496C75.874 66.496 76.2154 66.5893 76.5194 66.776C76.8287 66.9627 77.0714 67.2293 77.2474 67.576C77.4287 67.9173 77.5194 68.3147 77.5194 68.768C77.5194 69.2213 77.4287 69.624 77.2474 69.976C77.0714 70.3227 76.8287 70.592 76.5194 70.784C76.2154 70.976 75.874 71.072 75.4954 71.072C75.1647 71.072 74.874 71.008 74.6234 70.88C74.378 70.7467 74.1807 70.576 74.0314 70.368V71H72.9114V65.08H74.0314V67.216ZM76.3754 68.768C76.3754 68.5013 76.3194 68.272 76.2074 68.08C76.1007 67.8827 75.9567 67.7333 75.7754 67.632C75.5994 67.5307 75.4074 67.48 75.1994 67.48C74.9967 67.48 74.8047 67.5333 74.6234 67.64C74.4474 67.7413 74.3034 67.8907 74.1914 68.088C74.0847 68.2853 74.0314 68.5173 74.0314 68.784C74.0314 69.0507 74.0847 69.2827 74.1914 69.48C74.3034 69.6773 74.4474 69.8293 74.6234 69.936C74.8047 70.0373 74.9967 70.088 75.1994 70.088C75.4074 70.088 75.5994 70.0347 75.7754 69.928C75.9567 69.8213 76.1007 69.6693 76.2074 69.472C76.3194 69.2747 76.3754 69.04 76.3754 68.768ZM78.0452 68.768C78.0452 68.32 78.1332 67.9227 78.3092 67.576C78.4906 67.2293 78.7333 66.9627 79.0373 66.776C79.3466 66.5893 79.6906 66.496 80.0693 66.496C80.3999 66.496 80.6879 66.5627 80.9333 66.696C81.1839 66.8293 81.3839 66.9973 81.5333 67.2V66.568H82.6613V71H81.5333V70.352C81.3893 70.56 81.1893 70.7333 80.9333 70.872C80.6826 71.0053 80.3919 71.072 80.0613 71.072C79.6879 71.072 79.3466 70.976 79.0373 70.784C78.7333 70.592 78.4906 70.3227 78.3092 69.976C78.1332 69.624 78.0452 69.2213 78.0452 68.768ZM81.5333 68.784C81.5333 68.512 81.4799 68.28 81.3733 68.088C81.2666 67.8907 81.1226 67.7413 80.9413 67.64C80.7599 67.5333 80.5653 67.48 80.3573 67.48C80.1493 67.48 79.9573 67.5307 79.7812 67.632C79.6053 67.7333 79.4613 67.8827 79.3493 68.08C79.2426 68.272 79.1893 68.5013 79.1893 68.768C79.1893 69.0347 79.2426 69.2693 79.3493 69.472C79.4613 69.6693 79.6053 69.8213 79.7812 69.928C79.9626 70.0347 80.1546 70.088 80.3573 70.088C80.5653 70.088 80.7599 70.0373 80.9413 69.936C81.1226 69.8293 81.2666 69.68 81.3733 69.488C81.4799 69.2907 81.5333 69.056 81.5333 68.784ZM84.8751 67.216C85.0191 67.0027 85.2165 66.8293 85.4671 66.696C85.7231 66.5627 86.0138 66.496 86.3391 66.496C86.7178 66.496 87.0591 66.5893 87.3631 66.776C87.6725 66.9627 87.9151 67.2293 88.0911 67.576C88.2725 67.9173 88.3631 68.3147 88.3631 68.768C88.3631 69.2213 88.2725 69.624 88.0911 69.976C87.9151 70.3227 87.6725 70.592 87.3631 70.784C87.0591 70.976 86.7178 71.072 86.3391 71.072C86.0085 71.072 85.7178 71.008 85.4671 70.88C85.2218 70.7467 85.0245 70.576 84.8751 70.368V71H83.7551V65.08H84.8751V67.216ZM87.2191 68.768C87.2191 68.5013 87.1631 68.272 87.0511 68.08C86.9445 67.8827 86.8005 67.7333 86.6191 67.632C86.4431 67.5307 86.2511 67.48 86.0431 67.48C85.8405 67.48 85.6485 67.5333 85.4671 67.64C85.2911 67.7413 85.1471 67.8907 85.0351 68.088C84.9285 68.2853 84.8751 68.5173 84.8751 68.784C84.8751 69.0507 84.9285 69.2827 85.0351 69.48C85.1471 69.6773 85.2911 69.8293 85.4671 69.936C85.6485 70.0373 85.8405 70.088 86.0431 70.088C86.2511 70.088 86.4431 70.0347 86.6191 69.928C86.8005 69.8213 86.9445 69.6693 87.0511 69.472C87.1631 69.2747 87.2191 69.04 87.2191 68.768ZM88.889 68.768C88.889 68.32 88.977 67.9227 89.153 67.576C89.3343 67.2293 89.577 66.9627 89.881 66.776C90.1903 66.5893 90.5343 66.496 90.913 66.496C91.2437 66.496 91.5317 66.5627 91.777 66.696C92.0277 66.8293 92.2277 66.9973 92.377 67.2V66.568H93.505V71H92.377V70.352C92.233 70.56 92.033 70.7333 91.777 70.872C91.5263 71.0053 91.2357 71.072 90.905 71.072C90.5317 71.072 90.1903 70.976 89.881 70.784C89.577 70.592 89.3343 70.3227 89.153 69.976C88.977 69.624 88.889 69.2213 88.889 68.768ZM92.377 68.784C92.377 68.512 92.3237 68.28 92.217 68.088C92.1103 67.8907 91.9663 67.7413 91.785 67.64C91.6037 67.5333 91.409 67.48 91.201 67.48C90.993 67.48 90.801 67.5307 90.625 67.632C90.449 67.7333 90.305 67.8827 90.193 68.08C90.0863 68.272 90.033 68.5013 90.033 68.768C90.033 69.0347 90.0863 69.2693 90.193 69.472C90.305 69.6693 90.449 69.8213 90.625 69.928C90.8063 70.0347 90.9983 70.088 91.201 70.088C91.409 70.088 91.6037 70.0373 91.785 69.936C91.9663 69.8293 92.1103 69.68 92.217 69.488C92.3237 69.2907 92.377 69.056 92.377 68.784ZM96.2171 68.768C96.2171 68.32 96.3051 67.9227 96.4811 67.576C96.6625 67.2293 96.9051 66.9627 97.2091 66.776C97.5185 66.5893 97.8625 66.496 98.2411 66.496C98.5718 66.496 98.8598 66.5627 99.1051 66.696C99.3558 66.8293 99.5558 66.9973 99.7051 67.2V66.568H100.833V71H99.7051V70.352C99.5611 70.56 99.3611 70.7333 99.1051 70.872C98.8545 71.0053 98.5638 71.072 98.2331 71.072C97.8598 71.072 97.5185 70.976 97.2091 70.784C96.9051 70.592 96.6625 70.3227 96.4811 69.976C96.3051 69.624 96.2171 69.2213 96.2171 68.768ZM99.7051 68.784C99.7051 68.512 99.6518 68.28 99.5451 68.088C99.4385 67.8907 99.2945 67.7413 99.1131 67.64C98.9318 67.5333 98.7371 67.48 98.5291 67.48C98.3211 67.48 98.1291 67.5307 97.9531 67.632C97.7771 67.7333 97.6331 67.8827 97.5211 68.08C97.4145 68.272 97.3611 68.5013 97.3611 68.768C97.3611 69.0347 97.4145 69.2693 97.5211 69.472C97.6331 69.6693 97.7771 69.8213 97.9531 69.928C98.1345 70.0347 98.3265 70.088 98.5291 70.088C98.7371 70.088 98.9318 70.0373 99.1131 69.936C99.2945 69.8293 99.4385 69.68 99.5451 69.488C99.6518 69.2907 99.7051 69.056 99.7051 68.784ZM103.047 67.208C103.191 67.0053 103.388 66.8373 103.639 66.704C103.895 66.5653 104.186 66.496 104.511 66.496C104.89 66.496 105.231 66.5893 105.535 66.776C105.844 66.9627 106.087 67.2293 106.263 67.576C106.444 67.9173 106.535 68.3147 106.535 68.768C106.535 69.2213 106.444 69.624 106.263 69.976C106.087 70.3227 105.844 70.592 105.535 70.784C105.231 70.976 104.89 71.072 104.511 71.072C104.186 71.072 103.898 71.0053 103.647 70.872C103.402 70.7387 103.202 70.5707 103.047 70.368V73.112H101.927V66.568H103.047V67.208ZM105.391 68.768C105.391 68.5013 105.335 68.272 105.223 68.08C105.116 67.8827 104.972 67.7333 104.791 67.632C104.615 67.5307 104.423 67.48 104.215 67.48C104.012 67.48 103.82 67.5333 103.639 67.64C103.463 67.7413 103.319 67.8907 103.207 68.088C103.1 68.2853 103.047 68.5173 103.047 68.784C103.047 69.0507 103.1 69.2827 103.207 69.48C103.319 69.6773 103.463 69.8293 103.639 69.936C103.82 70.0373 104.012 70.088 104.215 70.088C104.423 70.088 104.615 70.0347 104.791 69.928C104.972 69.8213 105.116 69.6693 105.223 69.472C105.335 69.2747 105.391 69.04 105.391 68.768ZM107.061 68.768C107.061 68.32 107.149 67.9227 107.325 67.576C107.506 67.2293 107.749 66.9627 108.053 66.776C108.362 66.5893 108.706 66.496 109.085 66.496C109.416 66.496 109.704 66.5627 109.949 66.696C110.2 66.8293 110.4 66.9973 110.549 67.2V66.568H111.677V71H110.549V70.352C110.405 70.56 110.205 70.7333 109.949 70.872C109.698 71.0053 109.408 71.072 109.077 71.072C108.704 71.072 108.362 70.976 108.053 70.784C107.749 70.592 107.506 70.3227 107.325 69.976C107.149 69.624 107.061 69.2213 107.061 68.768ZM110.549 68.784C110.549 68.512 110.496 68.28 110.389 68.088C110.282 67.8907 110.138 67.7413 109.957 67.64C109.776 67.5333 109.581 67.48 109.373 67.48C109.165 67.48 108.973 67.5307 108.797 67.632C108.621 67.7333 108.477 67.8827 108.365 68.08C108.258 68.272 108.205 68.5013 108.205 68.768C108.205 69.0347 108.258 69.2693 108.365 69.472C108.477 69.6693 108.621 69.8213 108.797 69.928C108.978 70.0347 109.17 70.088 109.373 70.088C109.581 70.088 109.776 70.0373 109.957 69.936C110.138 69.8293 110.282 69.68 110.389 69.488C110.496 69.2907 110.549 69.056 110.549 68.784ZM113.891 67.256C114.035 67.0213 114.221 66.8373 114.451 66.704C114.685 66.5707 114.952 66.504 115.251 66.504V67.68H114.955C114.603 67.68 114.336 67.7627 114.155 67.928C113.979 68.0933 113.891 68.3813 113.891 68.792V71H112.771V66.568H113.891V67.256ZM117.309 67.488V69.632C117.309 69.7813 117.344 69.8907 117.413 69.96C117.488 70.024 117.61 70.056 117.781 70.056H118.301V71H117.597C116.653 71 116.181 70.5413 116.181 69.624V67.488H115.653V66.568H116.181V65.472H117.309V66.568H118.301V67.488H117.309ZM124.611 66.504C125.155 66.504 125.592 66.672 125.923 67.008C126.259 67.3387 126.427 67.8027 126.427 68.4V71H125.307V68.552C125.307 68.2053 125.219 67.9413 125.043 67.76C124.867 67.5733 124.627 67.48 124.323 67.48C124.019 67.48 123.776 67.5733 123.595 67.76C123.419 67.9413 123.331 68.2053 123.331 68.552V71H122.211V68.552C122.211 68.2053 122.123 67.9413 121.947 67.76C121.771 67.5733 121.531 67.48 121.227 67.48C120.917 67.48 120.672 67.5733 120.491 67.76C120.315 67.9413 120.227 68.2053 120.227 68.552V71H119.107V66.568H120.227V67.104C120.371 66.9173 120.555 66.7707 120.779 66.664C121.008 66.5573 121.259 66.504 121.531 66.504C121.877 66.504 122.187 66.5787 122.459 66.728C122.731 66.872 122.941 67.08 123.091 67.352C123.235 67.096 123.443 66.8907 123.715 66.736C123.992 66.5813 124.291 66.504 124.611 66.504ZM131.61 68.688C131.61 68.848 131.599 68.992 131.578 69.12H128.338C128.364 69.44 128.476 69.6907 128.674 69.872C128.871 70.0533 129.114 70.144 129.402 70.144C129.818 70.144 130.114 69.9653 130.29 69.608H131.498C131.37 70.0347 131.124 70.3867 130.762 70.664C130.399 70.936 129.954 71.072 129.426 71.072C128.999 71.072 128.615 70.9787 128.274 70.792C127.938 70.6 127.674 70.3307 127.482 69.984C127.295 69.6373 127.201 69.2373 127.201 68.784C127.201 68.3253 127.295 67.9227 127.482 67.576C127.668 67.2293 127.93 66.9627 128.266 66.776C128.602 66.5893 128.988 66.496 129.426 66.496C129.847 66.496 130.223 66.5867 130.554 66.768C130.89 66.9493 131.148 67.208 131.33 67.544C131.516 67.8747 131.61 68.256 131.61 68.688ZM130.45 68.368C130.444 68.08 130.34 67.8507 130.138 67.68C129.935 67.504 129.687 67.416 129.394 67.416C129.116 67.416 128.882 67.5013 128.69 67.672C128.503 67.8373 128.388 68.0693 128.346 68.368H130.45ZM134.883 66.504C135.411 66.504 135.838 66.672 136.163 67.008C136.488 67.3387 136.651 67.8027 136.651 68.4V71H135.531V68.552C135.531 68.2 135.443 67.9307 135.267 67.744C135.091 67.552 134.851 67.456 134.547 67.456C134.238 67.456 133.992 67.552 133.811 67.744C133.635 67.9307 133.547 68.2 133.547 68.552V71H132.427V66.568H133.547V67.12C133.696 66.928 133.886 66.7787 134.115 66.672C134.35 66.56 134.606 66.504 134.883 66.504ZM139.02 67.488V69.632C139.02 69.7813 139.055 69.8907 139.124 69.96C139.199 70.024 139.321 70.056 139.492 70.056H140.012V71H139.308C138.364 71 137.892 70.5413 137.892 69.624V67.488H137.364V66.568H137.892V65.472H139.02V66.568H140.012V67.488H139.02ZM49.52 83.072C49.0933 83.072 48.7093 82.9787 48.368 82.792C48.0267 82.6 47.7573 82.3307 47.56 81.984C47.368 81.6373 47.272 81.2373 47.272 80.784C47.272 80.3307 47.3707 79.9307 47.568 79.584C47.7707 79.2373 48.0453 78.9707 48.392 78.784C48.7387 78.592 49.1253 78.496 49.552 78.496C49.9787 78.496 50.3653 78.592 50.712 78.784C51.0587 78.9707 51.3307 79.2373 51.528 79.584C51.7307 79.9307 51.832 80.3307 51.832 80.784C51.832 81.2373 51.728 81.6373 51.52 81.984C51.3173 82.3307 51.04 82.6 50.688 82.792C50.3413 82.9787 49.952 83.072 49.52 83.072ZM49.52 82.096C49.7227 82.096 49.912 82.048 50.088 81.952C50.2693 81.8507 50.4133 81.7013 50.52 81.504C50.6267 81.3067 50.68 81.0667 50.68 80.784C50.68 80.3627 50.568 80.04 50.344 79.816C50.1253 79.5867 49.856 79.472 49.536 79.472C49.216 79.472 48.9467 79.5867 48.728 79.816C48.5147 80.04 48.408 80.3627 48.408 80.784C48.408 81.2053 48.512 81.5307 48.72 81.76C48.9333 81.984 49.2 82.096 49.52 82.096ZM54.6856 79.488H53.9096V83H52.7736V79.488H52.2696V78.568H52.7736V78.344C52.7736 77.8 52.9282 77.4 53.2376 77.144C53.5469 76.888 54.0136 76.768 54.6376 76.784V77.728C54.3656 77.7227 54.1762 77.768 54.0696 77.864C53.9629 77.96 53.9096 78.1333 53.9096 78.384V78.568H54.6856V79.488ZM57.4434 79.488H56.6674V83H55.5314V79.488H55.0274V78.568H55.5314V78.344C55.5314 77.8 55.686 77.4 55.9954 77.144C56.3047 76.888 56.7714 76.768 57.3954 76.784V77.728C57.1234 77.7227 56.934 77.768 56.8274 77.864C56.7207 77.96 56.6674 78.1333 56.6674 78.384V78.568H57.4434V79.488ZM58.7372 78.04C58.5399 78.04 58.3745 77.9787 58.2412 77.856C58.1132 77.728 58.0492 77.5707 58.0492 77.384C58.0492 77.1973 58.1132 77.0427 58.2412 76.92C58.3745 76.792 58.5399 76.728 58.7372 76.728C58.9345 76.728 59.0972 76.792 59.2252 76.92C59.3585 77.0427 59.4252 77.1973 59.4252 77.384C59.4252 77.5707 59.3585 77.728 59.2252 77.856C59.0972 77.9787 58.9345 78.04 58.7372 78.04ZM59.2892 78.568V83H58.1692V78.568H59.2892ZM60.1077 80.784C60.1077 80.3253 60.2011 79.9253 60.3878 79.584C60.5744 79.2373 60.8331 78.9707 61.1638 78.784C61.4944 78.592 61.8731 78.496 62.2998 78.496C62.8491 78.496 63.3024 78.6347 63.6598 78.912C64.0224 79.184 64.2651 79.568 64.3878 80.064H63.1798C63.1158 79.872 63.0064 79.7227 62.8518 79.616C62.7024 79.504 62.5158 79.448 62.2918 79.448C61.9718 79.448 61.7184 79.5653 61.5318 79.8C61.3451 80.0293 61.2518 80.3573 61.2518 80.784C61.2518 81.2053 61.3451 81.5333 61.5318 81.768C61.7184 81.9973 61.9718 82.112 62.2918 82.112C62.7451 82.112 63.0411 81.9093 63.1798 81.504H64.3878C64.2651 81.984 64.0224 82.3653 63.6598 82.648C63.2971 82.9307 62.8438 83.072 62.2998 83.072C61.8731 83.072 61.4944 82.9787 61.1638 82.792C60.8331 82.6 60.5744 82.3333 60.3878 81.992C60.2011 81.6453 60.1077 81.2427 60.1077 80.784ZM69.3283 80.688C69.3283 80.848 69.3176 80.992 69.2963 81.12H66.0563C66.0829 81.44 66.1949 81.6907 66.3923 81.872C66.5896 82.0533 66.8323 82.144 67.1203 82.144C67.5363 82.144 67.8323 81.9653 68.0083 81.608H69.2163C69.0883 82.0347 68.8429 82.3867 68.4803 82.664C68.1176 82.936 67.6723 83.072 67.1443 83.072C66.7176 83.072 66.3336 82.9787 65.9923 82.792C65.6563 82.6 65.3923 82.3307 65.2003 81.984C65.0136 81.6373 64.9202 81.2373 64.9202 80.784C64.9202 80.3253 65.0136 79.9227 65.2003 79.576C65.3869 79.2293 65.6483 78.9627 65.9843 78.776C66.3203 78.5893 66.7069 78.496 67.1443 78.496C67.5656 78.496 67.9416 78.5867 68.2723 78.768C68.6083 78.9493 68.8669 79.208 69.0483 79.544C69.2349 79.8747 69.3283 80.256 69.3283 80.688ZM68.1683 80.368C68.1629 80.08 68.0589 79.8507 67.8563 79.68C67.6536 79.504 67.4056 79.416 67.1123 79.416C66.8349 79.416 66.6003 79.5013 66.4083 79.672C66.2216 79.8373 66.1069 80.0693 66.0643 80.368H68.1683ZM74.508 78.504C75.036 78.504 75.4627 78.672 75.788 79.008C76.1133 79.3387 76.276 79.8027 76.276 80.4V83H75.156V80.552C75.156 80.2 75.068 79.9307 74.892 79.744C74.716 79.552 74.476 79.456 74.172 79.456C73.8627 79.456 73.6173 79.552 73.436 79.744C73.26 79.9307 73.172 80.2 73.172 80.552V83H72.052V78.568H73.172V79.12C73.3213 78.928 73.5107 78.7787 73.74 78.672C73.9747 78.56 74.2307 78.504 74.508 78.504ZM81.5251 78.568V83H80.3971V82.44C80.2531 82.632 80.0637 82.784 79.8291 82.896C79.5997 83.0027 79.3491 83.056 79.0771 83.056C78.7304 83.056 78.4237 82.984 78.1571 82.84C77.8904 82.6907 77.6797 82.4747 77.5251 82.192C77.3757 81.904 77.3011 81.5627 77.3011 81.168V78.568H78.4211V81.008C78.4211 81.36 78.5091 81.632 78.6851 81.824C78.8611 82.0107 79.1011 82.104 79.4051 82.104C79.7144 82.104 79.9571 82.0107 80.1331 81.824C80.3091 81.632 80.3971 81.36 80.3971 81.008V78.568H81.5251ZM88.1341 78.504C88.6781 78.504 89.1155 78.672 89.4461 79.008C89.7821 79.3387 89.9501 79.8027 89.9501 80.4V83H88.8301V80.552C88.8301 80.2053 88.7421 79.9413 88.5661 79.76C88.3901 79.5733 88.1501 79.48 87.8461 79.48C87.5421 79.48 87.2995 79.5733 87.1181 79.76C86.9421 79.9413 86.8541 80.2053 86.8541 80.552V83H85.7341V80.552C85.7341 80.2053 85.6461 79.9413 85.4701 79.76C85.2941 79.5733 85.0541 79.48 84.7501 79.48C84.4408 79.48 84.1955 79.5733 84.0141 79.76C83.8381 79.9413 83.7501 80.2053 83.7501 80.552V83H82.6301V78.568H83.7501V79.104C83.8941 78.9173 84.0781 78.7707 84.3021 78.664C84.5315 78.5573 84.7821 78.504 85.0541 78.504C85.4008 78.504 85.7101 78.5787 85.9821 78.728C86.2541 78.872 86.4648 79.08 86.6141 79.352C86.7581 79.096 86.9661 78.8907 87.2381 78.736C87.5155 78.5813 87.8141 78.504 88.1341 78.504ZM92.1329 79.216C92.2769 79.0027 92.4743 78.8293 92.7249 78.696C92.9809 78.5627 93.2716 78.496 93.5969 78.496C93.9756 78.496 94.3169 78.5893 94.6209 78.776C94.9303 78.9627 95.1729 79.2293 95.3489 79.576C95.5303 79.9173 95.6209 80.3147 95.6209 80.768C95.6209 81.2213 95.5303 81.624 95.3489 81.976C95.1729 82.3227 94.9303 82.592 94.6209 82.784C94.3169 82.976 93.9756 83.072 93.5969 83.072C93.2663 83.072 92.9756 83.008 92.7249 82.88C92.4796 82.7467 92.2823 82.576 92.1329 82.368V83H91.0129V77.08H92.1329V79.216ZM94.4769 80.768C94.4769 80.5013 94.4209 80.272 94.3089 80.08C94.2023 79.8827 94.0583 79.7333 93.8769 79.632C93.7009 79.5307 93.5089 79.48 93.3009 79.48C93.0983 79.48 92.9063 79.5333 92.7249 79.64C92.5489 79.7413 92.4049 79.8907 92.2929 80.088C92.1863 80.2853 92.1329 80.5173 92.1329 80.784C92.1329 81.0507 92.1863 81.2827 92.2929 81.48C92.4049 81.6773 92.5489 81.8293 92.7249 81.936C92.9063 82.0373 93.0983 82.088 93.3009 82.088C93.5089 82.088 93.7009 82.0347 93.8769 81.928C94.0583 81.8213 94.2023 81.6693 94.3089 81.472C94.4209 81.2747 94.4769 81.04 94.4769 80.768ZM100.555 80.688C100.555 80.848 100.544 80.992 100.523 81.12H97.2828C97.3095 81.44 97.4215 81.6907 97.6188 81.872C97.8161 82.0533 98.0588 82.144 98.3468 82.144C98.7628 82.144 99.0588 81.9653 99.2348 81.608H100.443C100.315 82.0347 100.069 82.3867 99.7068 82.664C99.3441 82.936 98.8988 83.072 98.3708 83.072C97.9441 83.072 97.5601 82.9787 97.2188 82.792C96.8828 82.6 96.6188 82.3307 96.4268 81.984C96.2401 81.6373 96.1468 81.2373 96.1468 80.784C96.1468 80.3253 96.2401 79.9227 96.4268 79.576C96.6135 79.2293 96.8748 78.9627 97.2108 78.776C97.5468 78.5893 97.9335 78.496 98.3708 78.496C98.7921 78.496 99.1681 78.5867 99.4988 78.768C99.8348 78.9493 100.093 79.208 100.275 79.544C100.461 79.8747 100.555 80.256 100.555 80.688ZM99.3948 80.368C99.3895 80.08 99.2855 79.8507 99.0828 79.68C98.8801 79.504 98.6321 79.416 98.3388 79.416C98.0615 79.416 97.8268 79.5013 97.6348 79.672C97.4481 79.8373 97.3335 80.0693 97.2908 80.368H99.3948ZM102.492 79.256C102.636 79.0213 102.823 78.8373 103.052 78.704C103.287 78.5707 103.554 78.504 103.852 78.504V79.68H103.556C103.204 79.68 102.938 79.7627 102.756 79.928C102.58 80.0933 102.492 80.3813 102.492 80.792V83H101.372V78.568H102.492V79.256ZM106.737 81.736C107.249 81.3093 107.657 80.9547 107.961 80.672C108.265 80.384 108.518 80.0853 108.721 79.776C108.924 79.4667 109.025 79.1627 109.025 78.864C109.025 78.592 108.961 78.3787 108.833 78.224C108.705 78.0693 108.508 77.992 108.241 77.992C107.974 77.992 107.769 78.0827 107.625 78.264C107.481 78.44 107.406 78.6827 107.401 78.992H106.313C106.334 78.352 106.524 77.8667 106.881 77.536C107.244 77.2053 107.702 77.04 108.257 77.04C108.865 77.04 109.332 77.2027 109.657 77.528C109.982 77.848 110.145 78.272 110.145 78.8C110.145 79.216 110.033 79.6133 109.809 79.992C109.585 80.3707 109.329 80.7013 109.041 80.984C108.753 81.2613 108.377 81.5973 107.913 81.992H110.273V82.92H106.321V82.088L106.737 81.736ZM110.979 80.008C110.979 79.0853 111.144 78.3627 111.475 77.84C111.811 77.3173 112.365 77.056 113.139 77.056C113.912 77.056 114.464 77.3173 114.795 77.84C115.131 78.3627 115.299 79.0853 115.299 80.008C115.299 80.936 115.131 81.664 114.795 82.192C114.464 82.72 113.912 82.984 113.139 82.984C112.365 82.984 111.811 82.72 111.475 82.192C111.144 81.664 110.979 80.936 110.979 80.008ZM114.195 80.008C114.195 79.6133 114.168 79.2827 114.115 79.016C114.067 78.744 113.965 78.5227 113.811 78.352C113.661 78.1813 113.437 78.096 113.139 78.096C112.84 78.096 112.613 78.1813 112.459 78.352C112.309 78.5227 112.208 78.744 112.155 79.016C112.107 79.2827 112.083 79.6133 112.083 80.008C112.083 80.4133 112.107 80.7547 112.155 81.032C112.203 81.304 112.304 81.5253 112.459 81.696C112.613 81.8613 112.84 81.944 113.139 81.944C113.437 81.944 113.664 81.8613 113.819 81.696C113.973 81.5253 114.075 81.304 114.123 81.032C114.171 80.7547 114.195 80.4133 114.195 80.008ZM119.279 75.424L117.119 84.448H116.023L118.183 75.424H119.279ZM120.393 81.736C120.905 81.3093 121.313 80.9547 121.617 80.672C121.921 80.384 122.175 80.0853 122.377 79.776C122.58 79.4667 122.681 79.1627 122.681 78.864C122.681 78.592 122.617 78.3787 122.489 78.224C122.361 78.0693 122.164 77.992 121.897 77.992C121.631 77.992 121.425 78.0827 121.281 78.264C121.137 78.44 121.063 78.6827 121.057 78.992H119.969C119.991 78.352 120.18 77.8667 120.537 77.536C120.9 77.2053 121.359 77.04 121.913 77.04C122.521 77.04 122.988 77.2027 123.313 77.528C123.639 77.848 123.801 78.272 123.801 78.8C123.801 79.216 123.689 79.6133 123.465 79.992C123.241 80.3707 122.985 80.7013 122.697 80.984C122.409 81.2613 122.033 81.5973 121.569 81.992H123.929V82.92H119.977V82.088L120.393 81.736ZM124.499 78.2V77.168H126.427V83H125.275V78.2H124.499ZM48.672 91.208C48.816 91.0053 49.0133 90.8373 49.264 90.704C49.52 90.5653 49.8107 90.496 50.136 90.496C50.5147 90.496 50.856 90.5893 51.16 90.776C51.4693 90.9627 51.712 91.2293 51.888 91.576C52.0693 91.9173 52.16 92.3147 52.16 92.768C52.16 93.2213 52.0693 93.624 51.888 93.976C51.712 94.3227 51.4693 94.592 51.16 94.784C50.856 94.976 50.5147 95.072 50.136 95.072C49.8107 95.072 49.5227 95.0053 49.272 94.872C49.0267 94.7387 48.8267 94.5707 48.672 94.368V97.112H47.552V90.568H48.672V91.208ZM51.016 92.768C51.016 92.5013 50.96 92.272 50.848 92.08C50.7413 91.8827 50.5973 91.7333 50.416 91.632C50.24 91.5307 50.048 91.48 49.84 91.48C49.6373 91.48 49.4453 91.5333 49.264 91.64C49.088 91.7413 48.944 91.8907 48.832 92.088C48.7253 92.2853 48.672 92.5173 48.672 92.784C48.672 93.0507 48.7253 93.2827 48.832 93.48C48.944 93.6773 49.088 93.8293 49.264 93.936C49.4453 94.0373 49.6373 94.088 49.84 94.088C50.048 94.088 50.24 94.0347 50.416 93.928C50.5973 93.8213 50.7413 93.6693 50.848 93.472C50.96 93.2747 51.016 93.04 51.016 92.768ZM54.9419 95.072C54.5152 95.072 54.1312 94.9787 53.7899 94.792C53.4485 94.6 53.1792 94.3307 52.9819 93.984C52.7899 93.6373 52.6939 93.2373 52.6939 92.784C52.6939 92.3307 52.7925 91.9307 52.9899 91.584C53.1925 91.2373 53.4672 90.9707 53.8139 90.784C54.1605 90.592 54.5472 90.496 54.9739 90.496C55.4005 90.496 55.7872 90.592 56.1339 90.784C56.4805 90.9707 56.7525 91.2373 56.9499 91.584C57.1525 91.9307 57.2539 92.3307 57.2539 92.784C57.2539 93.2373 57.1499 93.6373 56.9419 93.984C56.7392 94.3307 56.4619 94.6 56.1099 94.792C55.7632 94.9787 55.3739 95.072 54.9419 95.072ZM54.9419 94.096C55.1445 94.096 55.3339 94.048 55.5099 93.952C55.6912 93.8507 55.8352 93.7013 55.9419 93.504C56.0485 93.3067 56.1019 93.0667 56.1019 92.784C56.1019 92.3627 55.9899 92.04 55.7659 91.816C55.5472 91.5867 55.2779 91.472 54.9579 91.472C54.6379 91.472 54.3685 91.5867 54.1499 91.816C53.9365 92.04 53.8299 92.3627 53.8299 92.784C53.8299 93.2053 53.9339 93.5307 54.1419 93.76C54.3552 93.984 54.6219 94.096 54.9419 94.096ZM59.7714 95.072C59.4088 95.072 59.0834 95.008 58.7954 94.88C58.5074 94.7467 58.2781 94.568 58.1074 94.344C57.9421 94.12 57.8514 93.872 57.8354 93.6H58.9634C58.9848 93.7707 59.0674 93.912 59.2114 94.024C59.3608 94.136 59.5448 94.192 59.7634 94.192C59.9768 94.192 60.1421 94.1493 60.2594 94.064C60.3821 93.9787 60.4434 93.8693 60.4434 93.736C60.4434 93.592 60.3688 93.4853 60.2194 93.416C60.0754 93.3413 59.8434 93.2613 59.5234 93.176C59.1928 93.096 58.9208 93.0133 58.7074 92.928C58.4994 92.8427 58.3181 92.712 58.1634 92.536C58.0141 92.36 57.9394 92.1227 57.9394 91.824C57.9394 91.5787 58.0088 91.3547 58.1474 91.152C58.2914 90.9493 58.4941 90.7893 58.7554 90.672C59.0221 90.5547 59.3341 90.496 59.6914 90.496C60.2194 90.496 60.6408 90.6293 60.9554 90.896C61.2701 91.1573 61.4434 91.512 61.4754 91.96H60.4034C60.3874 91.784 60.3128 91.6453 60.1794 91.544C60.0514 91.4373 59.8781 91.384 59.6594 91.384C59.4568 91.384 59.2994 91.4213 59.1874 91.496C59.0808 91.5707 59.0274 91.6747 59.0274 91.808C59.0274 91.9573 59.1021 92.072 59.2514 92.152C59.4008 92.2267 59.6328 92.304 59.9474 92.384C60.2674 92.464 60.5314 92.5467 60.7394 92.632C60.9474 92.7173 61.1261 92.8507 61.2754 93.032C61.4301 93.208 61.5101 93.4427 61.5154 93.736C61.5154 93.992 61.4434 94.2213 61.2994 94.424C61.1608 94.6267 60.9581 94.7867 60.6914 94.904C60.4301 95.016 60.1234 95.072 59.7714 95.072ZM63.7388 91.488V93.632C63.7388 93.7813 63.7735 93.8907 63.8428 93.96C63.9175 94.024 64.0401 94.056 64.2108 94.056H64.7308V95H64.0268C63.0828 95 62.6108 94.5413 62.6108 93.624V91.488H62.0828V90.568H62.6108V89.472H63.7388V90.568H64.7308V91.488H63.7388ZM71.0404 90.504C71.5844 90.504 72.0217 90.672 72.3524 91.008C72.6884 91.3387 72.8564 91.8027 72.8564 92.4V95H71.7364V92.552C71.7364 92.2053 71.6484 91.9413 71.4724 91.76C71.2964 91.5733 71.0564 91.48 70.7524 91.48C70.4484 91.48 70.2057 91.5733 70.0244 91.76C69.8484 91.9413 69.7604 92.2053 69.7604 92.552V95H68.6404V92.552C68.6404 92.2053 68.5524 91.9413 68.3764 91.76C68.2004 91.5733 67.9604 91.48 67.6564 91.48C67.347 91.48 67.1017 91.5733 66.9204 91.76C66.7444 91.9413 66.6564 92.2053 66.6564 92.552V95H65.5364V90.568H66.6564V91.104C66.8004 90.9173 66.9844 90.7707 67.2084 90.664C67.4377 90.5573 67.6884 90.504 67.9604 90.504C68.307 90.504 68.6164 90.5787 68.8884 90.728C69.1604 90.872 69.371 91.08 69.5204 91.352C69.6644 91.096 69.8724 90.8907 70.1444 90.736C70.4217 90.5813 70.7204 90.504 71.0404 90.504ZM73.6312 92.768C73.6312 92.32 73.7192 91.9227 73.8952 91.576C74.0765 91.2293 74.3192 90.9627 74.6232 90.776C74.9325 90.5893 75.2765 90.496 75.6552 90.496C75.9859 90.496 76.2739 90.5627 76.5192 90.696C76.7699 90.8293 76.9699 90.9973 77.1192 91.2V90.568H78.2472V95H77.1192V94.352C76.9752 94.56 76.7752 94.7333 76.5192 94.872C76.2685 95.0053 75.9779 95.072 75.6472 95.072C75.2739 95.072 74.9325 94.976 74.6232 94.784C74.3192 94.592 74.0765 94.3227 73.8952 93.976C73.7192 93.624 73.6312 93.2213 73.6312 92.768ZM77.1192 92.784C77.1192 92.512 77.0659 92.28 76.9592 92.088C76.8525 91.8907 76.7085 91.7413 76.5272 91.64C76.3459 91.5333 76.1512 91.48 75.9432 91.48C75.7352 91.48 75.5432 91.5307 75.3672 91.632C75.1912 91.7333 75.0472 91.8827 74.9352 92.08C74.8285 92.272 74.7752 92.5013 74.7752 92.768C74.7752 93.0347 74.8285 93.2693 74.9352 93.472C75.0472 93.6693 75.1912 93.8213 75.3672 93.928C75.5485 94.0347 75.7405 94.088 75.9432 94.088C76.1512 94.088 76.3459 94.0373 76.5272 93.936C76.7085 93.8293 76.8525 93.68 76.9592 93.488C77.0659 93.2907 77.1192 93.056 77.1192 92.784ZM81.0371 95.072C80.6744 95.072 80.3491 95.008 80.0611 94.88C79.7731 94.7467 79.5437 94.568 79.3731 94.344C79.2077 94.12 79.1171 93.872 79.1011 93.6H80.2291C80.2504 93.7707 80.3331 93.912 80.4771 94.024C80.6264 94.136 80.8104 94.192 81.0291 94.192C81.2424 94.192 81.4077 94.1493 81.5251 94.064C81.6477 93.9787 81.7091 93.8693 81.7091 93.736C81.7091 93.592 81.6344 93.4853 81.4851 93.416C81.3411 93.3413 81.1091 93.2613 80.7891 93.176C80.4584 93.096 80.1864 93.0133 79.9731 92.928C79.7651 92.8427 79.5837 92.712 79.4291 92.536C79.2797 92.36 79.2051 92.1227 79.2051 91.824C79.2051 91.5787 79.2744 91.3547 79.4131 91.152C79.5571 90.9493 79.7597 90.7893 80.0211 90.672C80.2877 90.5547 80.5997 90.496 80.9571 90.496C81.4851 90.496 81.9064 90.6293 82.2211 90.896C82.5357 91.1573 82.7091 91.512 82.7411 91.96H81.6691C81.6531 91.784 81.5784 91.6453 81.4451 91.544C81.3171 91.4373 81.1437 91.384 80.9251 91.384C80.7224 91.384 80.5651 91.4213 80.4531 91.496C80.3464 91.5707 80.2931 91.6747 80.2931 91.808C80.2931 91.9573 80.3677 92.072 80.5171 92.152C80.6664 92.2267 80.8984 92.304 81.2131 92.384C81.5331 92.464 81.7971 92.5467 82.0051 92.632C82.2131 92.7173 82.3917 92.8507 82.5411 93.032C82.6957 93.208 82.7757 93.4427 82.7811 93.736C82.7811 93.992 82.7091 94.2213 82.5651 94.424C82.4264 94.6267 82.2237 94.7867 81.9571 94.904C81.6957 95.016 81.3891 95.072 81.0371 95.072ZM85.0044 91.488V93.632C85.0044 93.7813 85.0391 93.8907 85.1084 93.96C85.1831 94.024 85.3058 94.056 85.4764 94.056H85.9964V95H85.2924C84.3484 95 83.8764 94.5413 83.8764 93.624V91.488H83.3484V90.568H83.8764V89.472H85.0044V90.568H85.9964V91.488H85.0044ZM90.922 92.688C90.922 92.848 90.9113 92.992 90.89 93.12H87.65C87.6767 93.44 87.7887 93.6907 87.986 93.872C88.1833 94.0533 88.426 94.144 88.714 94.144C89.13 94.144 89.426 93.9653 89.602 93.608H90.81C90.682 94.0347 90.4367 94.3867 90.074 94.664C89.7113 94.936 89.266 95.072 88.738 95.072C88.3113 95.072 87.9273 94.9787 87.586 94.792C87.25 94.6 86.986 94.3307 86.794 93.984C86.6073 93.6373 86.514 93.2373 86.514 92.784C86.514 92.3253 86.6073 91.9227 86.794 91.576C86.9807 91.2293 87.242 90.9627 87.578 90.776C87.914 90.5893 88.3007 90.496 88.738 90.496C89.1593 90.496 89.5353 90.5867 89.866 90.768C90.202 90.9493 90.4607 91.208 90.642 91.544C90.8287 91.8747 90.922 92.256 90.922 92.688ZM89.762 92.368C89.7567 92.08 89.6527 91.8507 89.45 91.68C89.2473 91.504 88.9993 91.416 88.706 91.416C88.4287 91.416 88.194 91.5013 88.002 91.672C87.8153 91.8373 87.7007 92.0693 87.658 92.368H89.762ZM92.8595 91.256C93.0035 91.0213 93.1902 90.8373 93.4195 90.704C93.6542 90.5707 93.9208 90.504 94.2195 90.504V91.68H93.9235C93.5715 91.68 93.3048 91.7627 93.1235 91.928C92.9475 92.0933 92.8595 92.3813 92.8595 92.792V95H91.7395V90.568H92.8595V91.256ZM100.952 91.144C100.952 91.4427 100.88 91.7227 100.736 91.984C100.597 92.2453 100.376 92.456 100.072 92.616C99.7735 92.776 99.3948 92.856 98.9361 92.856H98.0001V95H96.8801V89.416H98.9361C99.3681 89.416 99.7361 89.4907 100.04 89.64C100.344 89.7893 100.571 89.9947 100.72 90.256C100.875 90.5173 100.952 90.8133 100.952 91.144ZM98.8881 91.952C99.1975 91.952 99.4268 91.8827 99.5761 91.744C99.7255 91.6 99.8001 91.4 99.8001 91.144C99.8001 90.6 99.4961 90.328 98.8881 90.328H98.0001V91.952H98.8881ZM103.715 95.072C103.289 95.072 102.905 94.9787 102.563 94.792C102.222 94.6 101.953 94.3307 101.755 93.984C101.563 93.6373 101.467 93.2373 101.467 92.784C101.467 92.3307 101.566 91.9307 101.763 91.584C101.966 91.2373 102.241 90.9707 102.587 90.784C102.934 90.592 103.321 90.496 103.747 90.496C104.174 90.496 104.561 90.592 104.907 90.784C105.254 90.9707 105.526 91.2373 105.723 91.584C105.926 91.9307 106.027 92.3307 106.027 92.784C106.027 93.2373 105.923 93.6373 105.715 93.984C105.513 94.3307 105.235 94.6 104.883 94.792C104.537 94.9787 104.147 95.072 103.715 95.072ZM103.715 94.096C103.918 94.096 104.107 94.048 104.283 93.952C104.465 93.8507 104.609 93.7013 104.715 93.504C104.822 93.3067 104.875 93.0667 104.875 92.784C104.875 92.3627 104.763 92.04 104.539 91.816C104.321 91.5867 104.051 91.472 103.731 91.472C103.411 91.472 103.142 91.5867 102.923 91.816C102.71 92.04 102.603 92.3627 102.603 92.784C102.603 93.2053 102.707 93.5307 102.915 93.76C103.129 93.984 103.395 94.096 103.715 94.096ZM108.545 95.072C108.182 95.072 107.857 95.008 107.569 94.88C107.281 94.7467 107.052 94.568 106.881 94.344C106.716 94.12 106.625 93.872 106.609 93.6H107.737C107.758 93.7707 107.841 93.912 107.985 94.024C108.134 94.136 108.318 94.192 108.537 94.192C108.75 94.192 108.916 94.1493 109.033 94.064C109.156 93.9787 109.217 93.8693 109.217 93.736C109.217 93.592 109.142 93.4853 108.993 93.416C108.849 93.3413 108.617 93.2613 108.297 93.176C107.966 93.096 107.694 93.0133 107.481 92.928C107.273 92.8427 107.092 92.712 106.937 92.536C106.788 92.36 106.713 92.1227 106.713 91.824C106.713 91.5787 106.782 91.3547 106.921 91.152C107.065 90.9493 107.268 90.7893 107.529 90.672C107.796 90.5547 108.108 90.496 108.465 90.496C108.993 90.496 109.414 90.6293 109.729 90.896C110.044 91.1573 110.217 91.512 110.249 91.96H109.177C109.161 91.784 109.086 91.6453 108.953 91.544C108.825 91.4373 108.652 91.384 108.433 91.384C108.23 91.384 108.073 91.4213 107.961 91.496C107.854 91.5707 107.801 91.6747 107.801 91.808C107.801 91.9573 107.876 92.072 108.025 92.152C108.174 92.2267 108.406 92.304 108.721 92.384C109.041 92.464 109.305 92.5467 109.513 92.632C109.721 92.7173 109.9 92.8507 110.049 93.032C110.204 93.208 110.284 93.4427 110.289 93.736C110.289 93.992 110.217 94.2213 110.073 94.424C109.934 94.6267 109.732 94.7867 109.465 94.904C109.204 95.016 108.897 95.072 108.545 95.072ZM112.512 91.488V93.632C112.512 93.7813 112.547 93.8907 112.616 93.96C112.691 94.024 112.814 94.056 112.984 94.056H113.504V95H112.8C111.856 95 111.384 94.5413 111.384 93.624V91.488H110.856V90.568H111.384V89.472H112.512V90.568H113.504V91.488H112.512ZM118.184 95.072C117.757 95.072 117.373 94.9787 117.032 94.792C116.691 94.6 116.421 94.3307 116.224 93.984C116.032 93.6373 115.936 93.2373 115.936 92.784C115.936 92.3307 116.035 91.9307 116.232 91.584C116.435 91.2373 116.709 90.9707 117.056 90.784C117.403 90.592 117.789 90.496 118.216 90.496C118.643 90.496 119.029 90.592 119.376 90.784C119.723 90.9707 119.995 91.2373 120.192 91.584C120.395 91.9307 120.496 92.3307 120.496 92.784C120.496 93.2373 120.392 93.6373 120.184 93.984C119.981 94.3307 119.704 94.6 119.352 94.792C119.005 94.9787 118.616 95.072 118.184 95.072ZM118.184 94.096C118.387 94.096 118.576 94.048 118.752 93.952C118.933 93.8507 119.077 93.7013 119.184 93.504C119.291 93.3067 119.344 93.0667 119.344 92.784C119.344 92.3627 119.232 92.04 119.008 91.816C118.789 91.5867 118.52 91.472 118.2 91.472C117.88 91.472 117.611 91.5867 117.392 91.816C117.179 92.04 117.072 92.3627 117.072 92.784C117.072 93.2053 117.176 93.5307 117.384 93.76C117.597 93.984 117.864 94.096 118.184 94.096ZM123.35 91.488H122.574V95H121.438V91.488H120.934V90.568H121.438V90.344C121.438 89.8 121.592 89.4 121.902 89.144C122.211 88.888 122.678 88.768 123.302 88.784V89.728C123.03 89.7227 122.84 89.768 122.734 89.864C122.627 89.96 122.574 90.1333 122.574 90.384V90.568H123.35V91.488ZM126.107 91.488H125.331V95H124.195V91.488H123.691V90.568H124.195V90.344C124.195 89.8 124.35 89.4 124.659 89.144C124.969 88.888 125.435 88.768 126.059 88.784V89.728C125.787 89.7227 125.598 89.768 125.491 89.864C125.385 89.96 125.331 90.1333 125.331 90.384V90.568H126.107V91.488ZM127.401 90.04C127.204 90.04 127.039 89.9787 126.905 89.856C126.777 89.728 126.713 89.5707 126.713 89.384C126.713 89.1973 126.777 89.0427 126.905 88.92C127.039 88.792 127.204 88.728 127.401 88.728C127.599 88.728 127.761 88.792 127.889 88.92C128.023 89.0427 128.089 89.1973 128.089 89.384C128.089 89.5707 128.023 89.728 127.889 89.856C127.761 89.9787 127.599 90.04 127.401 90.04ZM127.953 90.568V95H126.833V90.568H127.953ZM128.772 92.784C128.772 92.3253 128.865 91.9253 129.052 91.584C129.238 91.2373 129.497 90.9707 129.828 90.784C130.158 90.592 130.537 90.496 130.964 90.496C131.513 90.496 131.966 90.6347 132.324 90.912C132.686 91.184 132.929 91.568 133.052 92.064H131.844C131.78 91.872 131.67 91.7227 131.516 91.616C131.366 91.504 131.18 91.448 130.956 91.448C130.636 91.448 130.382 91.5653 130.196 91.8C130.009 92.0293 129.916 92.3573 129.916 92.784C129.916 93.2053 130.009 93.5333 130.196 93.768C130.382 93.9973 130.636 94.112 130.956 94.112C131.409 94.112 131.705 93.9093 131.844 93.504H133.052C132.929 93.984 132.686 94.3653 132.324 94.648C131.961 94.9307 131.508 95.072 130.964 95.072C130.537 95.072 130.158 94.9787 129.828 94.792C129.497 94.6 129.238 94.3333 129.052 93.992C128.865 93.6453 128.772 93.2427 128.772 92.784ZM137.992 92.688C137.992 92.848 137.982 92.992 137.96 93.12H134.72C134.747 93.44 134.859 93.6907 135.056 93.872C135.254 94.0533 135.496 94.144 135.784 94.144C136.2 94.144 136.496 93.9653 136.672 93.608H137.88C137.752 94.0347 137.507 94.3867 137.144 94.664C136.782 94.936 136.336 95.072 135.808 95.072C135.382 95.072 134.998 94.9787 134.656 94.792C134.32 94.6 134.056 94.3307 133.864 93.984C133.678 93.6373 133.584 93.2373 133.584 92.784C133.584 92.3253 133.678 91.9227 133.864 91.576C134.051 91.2293 134.312 90.9627 134.648 90.776C134.984 90.5893 135.371 90.496 135.808 90.496C136.23 90.496 136.606 90.5867 136.936 90.768C137.272 90.9493 137.531 91.208 137.712 91.544C137.899 91.8747 137.992 92.256 137.992 92.688ZM136.832 92.368C136.827 92.08 136.723 91.8507 136.52 91.68C136.318 91.504 136.07 91.416 135.776 91.416C135.499 91.416 135.264 91.5013 135.072 91.672C134.886 91.8373 134.771 92.0693 134.728 92.368H136.832ZM140.428 92.768C140.428 92.32 140.516 91.9227 140.692 91.576C140.873 91.2293 141.116 90.9627 141.42 90.776C141.729 90.5893 142.073 90.496 142.452 90.496C142.783 90.496 143.071 90.5627 143.316 90.696C143.567 90.8293 143.767 90.9973 143.916 91.2V90.568H145.044V95H143.916V94.352C143.772 94.56 143.572 94.7333 143.316 94.872C143.065 95.0053 142.775 95.072 142.444 95.072C142.071 95.072 141.729 94.976 141.42 94.784C141.116 94.592 140.873 94.3227 140.692 93.976C140.516 93.624 140.428 93.2213 140.428 92.768ZM143.916 92.784C143.916 92.512 143.863 92.28 143.756 92.088C143.649 91.8907 143.505 91.7413 143.324 91.64C143.143 91.5333 142.948 91.48 142.74 91.48C142.532 91.48 142.34 91.5307 142.164 91.632C141.988 91.7333 141.844 91.8827 141.732 92.08C141.625 92.272 141.572 92.5013 141.572 92.768C141.572 93.0347 141.625 93.2693 141.732 93.472C141.844 93.6693 141.988 93.8213 142.164 93.928C142.345 94.0347 142.537 94.088 142.74 94.088C142.948 94.088 143.143 94.0373 143.324 93.936C143.505 93.8293 143.649 93.68 143.756 93.488C143.863 93.2907 143.916 93.056 143.916 92.784ZM148.594 90.504C149.122 90.504 149.549 90.672 149.874 91.008C150.199 91.3387 150.362 91.8027 150.362 92.4V95H149.242V92.552C149.242 92.2 149.154 91.9307 148.978 91.744C148.802 91.552 148.562 91.456 148.258 91.456C147.949 91.456 147.703 91.552 147.522 91.744C147.346 91.9307 147.258 92.2 147.258 92.552V95H146.138V90.568H147.258V91.12C147.407 90.928 147.597 90.7787 147.826 90.672C148.061 90.56 148.317 90.504 148.594 90.504ZM151.995 90.04C151.798 90.04 151.632 89.9787 151.499 89.856C151.371 89.728 151.307 89.5707 151.307 89.384C151.307 89.1973 151.371 89.0427 151.499 88.92C151.632 88.792 151.798 88.728 151.995 88.728C152.192 88.728 152.355 88.792 152.483 88.92C152.616 89.0427 152.683 89.1973 152.683 89.384C152.683 89.5707 152.616 89.728 152.483 89.856C152.355 89.9787 152.192 90.04 151.995 90.04ZM152.547 90.568V95H151.427V90.568H152.547ZM154.958 91.488V93.632C154.958 93.7813 154.992 93.8907 155.062 93.96C155.136 94.024 155.259 94.056 155.43 94.056H155.95V95H155.246C154.302 95 153.83 94.5413 153.83 93.624V91.488H153.302V90.568H153.83V89.472H154.958V90.568H155.95V91.488H154.958ZM157.323 90.04C157.126 90.04 156.96 89.9787 156.827 89.856C156.699 89.728 156.635 89.5707 156.635 89.384C156.635 89.1973 156.699 89.0427 156.827 88.92C156.96 88.792 157.126 88.728 157.323 88.728C157.52 88.728 157.683 88.792 157.811 88.92C157.944 89.0427 158.011 89.1973 158.011 89.384C158.011 89.5707 157.944 89.728 157.811 89.856C157.683 89.9787 157.52 90.04 157.323 90.04ZM157.875 90.568V95H156.755V90.568H157.875ZM48.672 103.256C48.816 103.021 49.0027 102.837 49.232 102.704C49.4667 102.571 49.7333 102.504 50.032 102.504V103.68H49.736C49.384 103.68 49.1173 103.763 48.936 103.928C48.76 104.093 48.672 104.381 48.672 104.792V107H47.552V102.568H48.672V103.256ZM52.7544 107.072C52.3277 107.072 51.9437 106.979 51.6024 106.792C51.261 106.6 50.9917 106.331 50.7944 105.984C50.6024 105.637 50.5064 105.237 50.5064 104.784C50.5064 104.331 50.605 103.931 50.8024 103.584C51.005 103.237 51.2797 102.971 51.6264 102.784C51.973 102.592 52.3597 102.496 52.7864 102.496C53.213 102.496 53.5997 102.592 53.9464 102.784C54.293 102.971 54.565 103.237 54.7624 103.584C54.965 103.931 55.0664 104.331 55.0664 104.784C55.0664 105.237 54.9624 105.637 54.7544 105.984C54.5517 106.331 54.2744 106.6 53.9224 106.792C53.5757 106.979 53.1864 107.072 52.7544 107.072ZM52.7544 106.096C52.957 106.096 53.1464 106.048 53.3224 105.952C53.5037 105.851 53.6477 105.701 53.7544 105.504C53.861 105.307 53.9144 105.067 53.9144 104.784C53.9144 104.363 53.8024 104.04 53.5784 103.816C53.3597 103.587 53.0904 103.472 52.7704 103.472C52.4504 103.472 52.181 103.587 51.9624 103.816C51.749 104.04 51.6424 104.363 51.6424 104.784C51.6424 105.205 51.7464 105.531 51.9544 105.76C52.1677 105.984 52.4344 106.096 52.7544 106.096ZM55.5999 104.768C55.5999 104.32 55.6879 103.923 55.8639 103.576C56.0453 103.229 56.2879 102.963 56.5919 102.776C56.9013 102.589 57.2453 102.496 57.6239 102.496C57.9546 102.496 58.2426 102.563 58.4879 102.696C58.7386 102.829 58.9386 102.997 59.0879 103.2V102.568H60.2159V107H59.0879V106.352C58.9439 106.56 58.7439 106.733 58.4879 106.872C58.2373 107.005 57.9466 107.072 57.6159 107.072C57.2426 107.072 56.9013 106.976 56.5919 106.784C56.2879 106.592 56.0453 106.323 55.8639 105.976C55.6879 105.624 55.5999 105.221 55.5999 104.768ZM59.0879 104.784C59.0879 104.512 59.0346 104.28 58.9279 104.088C58.8213 103.891 58.6773 103.741 58.4959 103.64C58.3146 103.533 58.1199 103.48 57.9119 103.48C57.7039 103.48 57.5119 103.531 57.3359 103.632C57.1599 103.733 57.0159 103.883 56.9039 104.08C56.7973 104.272 56.7439 104.501 56.7439 104.768C56.7439 105.035 56.7973 105.269 56.9039 105.472C57.0159 105.669 57.1599 105.821 57.3359 105.928C57.5173 106.035 57.7093 106.088 57.9119 106.088C58.1199 106.088 58.3146 106.037 58.4959 105.936C58.6773 105.829 58.8213 105.68 58.9279 105.488C59.0346 105.291 59.0879 105.056 59.0879 104.784ZM61.0218 104.768C61.0218 104.32 61.1098 103.923 61.2858 103.576C61.4671 103.229 61.7125 102.963 62.0218 102.776C62.3311 102.589 62.6751 102.496 63.0538 102.496C63.3418 102.496 63.6165 102.56 63.8778 102.688C64.1391 102.811 64.3471 102.976 64.5018 103.184V101.08H65.6378V107H64.5018V106.344C64.3631 106.563 64.1685 106.739 63.9178 106.872C63.6671 107.005 63.3765 107.072 63.0458 107.072C62.6725 107.072 62.3311 106.976 62.0218 106.784C61.7125 106.592 61.4671 106.323 61.2858 105.976C61.1098 105.624 61.0218 105.221 61.0218 104.768ZM64.5098 104.784C64.5098 104.512 64.4565 104.28 64.3498 104.088C64.2431 103.891 64.0991 103.741 63.9178 103.64C63.7365 103.533 63.5418 103.48 63.3338 103.48C63.1258 103.48 62.9338 103.531 62.7578 103.632C62.5818 103.733 62.4378 103.883 62.3258 104.08C62.2191 104.272 62.1658 104.501 62.1658 104.768C62.1658 105.035 62.2191 105.269 62.3258 105.472C62.4378 105.669 62.5818 105.821 62.7578 105.928C62.9391 106.035 63.1311 106.088 63.3338 106.088C63.5418 106.088 63.7365 106.037 63.9178 105.936C64.0991 105.829 64.2431 105.68 64.3498 105.488C64.4565 105.291 64.5098 105.056 64.5098 104.784ZM71.8059 104.136C72.1206 104.195 72.3793 104.352 72.5819 104.608C72.7846 104.864 72.8859 105.157 72.8859 105.488C72.8859 105.787 72.8113 106.051 72.6619 106.28C72.5179 106.504 72.3073 106.68 72.0299 106.808C71.7526 106.936 71.4246 107 71.0459 107H68.6379V101.416H70.9419C71.3206 101.416 71.6459 101.477 71.9179 101.6C72.1953 101.723 72.4033 101.893 72.5419 102.112C72.6859 102.331 72.7579 102.579 72.7579 102.856C72.7579 103.181 72.6699 103.453 72.4939 103.672C72.3233 103.891 72.0939 104.045 71.8059 104.136ZM69.7579 103.72H70.7819C71.0486 103.72 71.2539 103.661 71.3979 103.544C71.5419 103.421 71.6139 103.248 71.6139 103.024C71.6139 102.8 71.5419 102.627 71.3979 102.504C71.2539 102.381 71.0486 102.32 70.7819 102.32H69.7579V103.72ZM70.8859 106.088C71.1579 106.088 71.3686 106.024 71.5179 105.896C71.6726 105.768 71.7499 105.587 71.7499 105.352C71.7499 105.112 71.6699 104.925 71.5099 104.792C71.3499 104.653 71.1339 104.584 70.8619 104.584H69.7579V106.088H70.8859ZM74.3466 102.04C74.1492 102.04 73.9839 101.979 73.8506 101.856C73.7226 101.728 73.6586 101.571 73.6586 101.384C73.6586 101.197 73.7226 101.043 73.8506 100.92C73.9839 100.792 74.1492 100.728 74.3466 100.728C74.5439 100.728 74.7066 100.792 74.8346 100.92C74.9679 101.043 75.0346 101.197 75.0346 101.384C75.0346 101.571 74.9679 101.728 74.8346 101.856C74.7066 101.979 74.5439 102.04 74.3466 102.04ZM74.8986 102.568V107H73.7786V102.568H74.8986ZM78.6291 107L77.1251 105.112V107H76.0051V101.08H77.1251V104.448L78.6131 102.568H80.0691L78.1171 104.792L80.0851 107H78.6291ZM80.389 104.768C80.389 104.32 80.477 103.923 80.653 103.576C80.8343 103.229 81.077 102.963 81.381 102.776C81.6903 102.589 82.0343 102.496 82.413 102.496C82.7437 102.496 83.0317 102.563 83.277 102.696C83.5277 102.829 83.7277 102.997 83.877 103.2V102.568H85.005V107H83.877V106.352C83.733 106.56 83.533 106.733 83.277 106.872C83.0263 107.005 82.7357 107.072 82.405 107.072C82.0317 107.072 81.6903 106.976 81.381 106.784C81.077 106.592 80.8343 106.323 80.653 105.976C80.477 105.624 80.389 105.221 80.389 104.768ZM83.877 104.784C83.877 104.512 83.8237 104.28 83.717 104.088C83.6103 103.891 83.4663 103.741 83.285 103.64C83.1037 103.533 82.909 103.48 82.701 103.48C82.493 103.48 82.301 103.531 82.125 103.632C81.949 103.733 81.805 103.883 81.693 104.08C81.5863 104.272 81.533 104.501 81.533 104.768C81.533 105.035 81.5863 105.269 81.693 105.472C81.805 105.669 81.949 105.821 82.125 105.928C82.3063 106.035 82.4983 106.088 82.701 106.088C82.909 106.088 83.1037 106.037 83.285 105.936C83.4663 105.829 83.6103 105.68 83.717 105.488C83.8237 105.291 83.877 105.056 83.877 104.784ZM88.5549 102.504C89.0829 102.504 89.5095 102.672 89.8349 103.008C90.1602 103.339 90.3229 103.803 90.3229 104.4V107H89.2029V104.552C89.2029 104.2 89.1149 103.931 88.9389 103.744C88.7629 103.552 88.5229 103.456 88.2189 103.456C87.9095 103.456 87.6642 103.552 87.4829 103.744C87.3069 103.931 87.2189 104.2 87.2189 104.552V107H86.0989V102.568H87.2189V103.12C87.3682 102.928 87.5575 102.779 87.7869 102.672C88.0215 102.56 88.2775 102.504 88.5549 102.504ZM95.5079 104.688C95.5079 104.848 95.4973 104.992 95.4759 105.12H92.2359C92.2626 105.44 92.3746 105.691 92.5719 105.872C92.7693 106.053 93.0119 106.144 93.2999 106.144C93.7159 106.144 94.0119 105.965 94.1879 105.608H95.3959C95.2679 106.035 95.0226 106.387 94.6599 106.664C94.2973 106.936 93.8519 107.072 93.3239 107.072C92.8973 107.072 92.5133 106.979 92.1719 106.792C91.8359 106.6 91.5719 106.331 91.3799 105.984C91.1933 105.637 91.0999 105.237 91.0999 104.784C91.0999 104.325 91.1933 103.923 91.3799 103.576C91.5666 103.229 91.8279 102.963 92.1639 102.776C92.4999 102.589 92.8866 102.496 93.3239 102.496C93.7453 102.496 94.1213 102.587 94.4519 102.768C94.7879 102.949 95.0466 103.208 95.2279 103.544C95.4146 103.875 95.5079 104.256 95.5079 104.688ZM94.3479 104.368C94.3426 104.08 94.2386 103.851 94.0359 103.68C93.8333 103.504 93.5853 103.416 93.2919 103.416C93.0146 103.416 92.7799 103.501 92.5879 103.672C92.4013 103.837 92.2866 104.069 92.2439 104.368H94.3479ZM97.4454 103.256C97.5894 103.021 97.7761 102.837 98.0054 102.704C98.2401 102.571 98.5068 102.504 98.8054 102.504V103.68H98.5094C98.1574 103.68 97.8908 103.763 97.7094 103.928C97.5334 104.093 97.4454 104.381 97.4454 104.792V107H96.3254V102.568H97.4454V103.256ZM104.346 107L103.114 104.824H102.586V107H101.466V101.416H103.562C103.994 101.416 104.362 101.493 104.666 101.648C104.97 101.797 105.197 102.003 105.346 102.264C105.501 102.52 105.578 102.808 105.578 103.128C105.578 103.496 105.471 103.829 105.258 104.128C105.045 104.421 104.727 104.624 104.306 104.736L105.642 107H104.346ZM102.586 103.984H103.522C103.826 103.984 104.053 103.912 104.202 103.768C104.351 103.619 104.426 103.413 104.426 103.152C104.426 102.896 104.351 102.699 104.202 102.56C104.053 102.416 103.826 102.344 103.522 102.344H102.586V103.984ZM106.303 104.768C106.303 104.32 106.391 103.923 106.567 103.576C106.748 103.229 106.991 102.963 107.295 102.776C107.604 102.589 107.948 102.496 108.327 102.496C108.658 102.496 108.946 102.563 109.191 102.696C109.442 102.829 109.642 102.997 109.791 103.2V102.568H110.919V107H109.791V106.352C109.647 106.56 109.447 106.733 109.191 106.872C108.94 107.005 108.65 107.072 108.319 107.072C107.946 107.072 107.604 106.976 107.295 106.784C106.991 106.592 106.748 106.323 106.567 105.976C106.391 105.624 106.303 105.221 106.303 104.768ZM109.791 104.784C109.791 104.512 109.738 104.28 109.631 104.088C109.524 103.891 109.38 103.741 109.199 103.64C109.018 103.533 108.823 103.48 108.615 103.48C108.407 103.48 108.215 103.531 108.039 103.632C107.863 103.733 107.719 103.883 107.607 104.08C107.5 104.272 107.447 104.501 107.447 104.768C107.447 105.035 107.5 105.269 107.607 105.472C107.719 105.669 107.863 105.821 108.039 105.928C108.22 106.035 108.412 106.088 108.615 106.088C108.823 106.088 109.018 106.037 109.199 105.936C109.38 105.829 109.524 105.68 109.631 105.488C109.738 105.291 109.791 105.056 109.791 104.784ZM112.581 102.04C112.378 102.04 112.21 101.979 112.077 101.856C111.949 101.728 111.885 101.571 111.885 101.384C111.885 101.197 111.949 101.043 112.077 100.92C112.21 100.792 112.378 100.728 112.581 100.728C112.778 100.728 112.941 100.792 113.069 100.92C113.197 101.043 113.261 101.197 113.261 101.384C113.261 101.571 113.197 101.728 113.069 101.856C112.941 101.979 112.778 102.04 112.581 102.04ZM113.133 107.728C113.133 108.219 113.01 108.571 112.765 108.784C112.525 109.003 112.178 109.112 111.725 109.112H111.229V108.16H111.549C111.72 108.16 111.84 108.125 111.909 108.056C111.978 107.992 112.013 107.885 112.013 107.736V102.568H113.133V107.728ZM113.951 104.768C113.951 104.32 114.039 103.923 114.215 103.576C114.397 103.229 114.64 102.963 114.944 102.776C115.253 102.589 115.597 102.496 115.976 102.496C116.306 102.496 116.594 102.563 116.84 102.696C117.09 102.829 117.29 102.997 117.44 103.2V102.568H118.568V107H117.44V106.352C117.296 106.56 117.096 106.733 116.84 106.872C116.589 107.005 116.298 107.072 115.968 107.072C115.594 107.072 115.253 106.976 114.944 106.784C114.64 106.592 114.397 106.323 114.215 105.976C114.039 105.624 113.951 105.221 113.951 104.768ZM117.44 104.784C117.44 104.512 117.386 104.28 117.28 104.088C117.173 103.891 117.029 103.741 116.848 103.64C116.666 103.533 116.472 103.48 116.264 103.48C116.056 103.48 115.864 103.531 115.688 103.632C115.512 103.733 115.368 103.883 115.256 104.08C115.149 104.272 115.096 104.501 115.096 104.768C115.096 105.035 115.149 105.269 115.256 105.472C115.368 105.669 115.512 105.821 115.688 105.928C115.869 106.035 116.061 106.088 116.264 106.088C116.472 106.088 116.666 106.037 116.848 105.936C117.029 105.829 117.173 105.68 117.28 105.488C117.386 105.291 117.44 105.056 117.44 104.784ZM121.357 107.072C120.995 107.072 120.669 107.008 120.381 106.88C120.093 106.747 119.864 106.568 119.693 106.344C119.528 106.12 119.437 105.872 119.421 105.6H120.549C120.571 105.771 120.653 105.912 120.797 106.024C120.947 106.136 121.131 106.192 121.349 106.192C121.563 106.192 121.728 106.149 121.845 106.064C121.968 105.979 122.029 105.869 122.029 105.736C122.029 105.592 121.955 105.485 121.805 105.416C121.661 105.341 121.429 105.261 121.109 105.176C120.779 105.096 120.507 105.013 120.293 104.928C120.085 104.843 119.904 104.712 119.749 104.536C119.6 104.36 119.525 104.123 119.525 103.824C119.525 103.579 119.595 103.355 119.733 103.152C119.877 102.949 120.08 102.789 120.341 102.672C120.608 102.555 120.92 102.496 121.277 102.496C121.805 102.496 122.227 102.629 122.541 102.896C122.856 103.157 123.029 103.512 123.061 103.96H121.989C121.973 103.784 121.899 103.645 121.765 103.544C121.637 103.437 121.464 103.384 121.245 103.384C121.043 103.384 120.885 103.421 120.773 103.496C120.667 103.571 120.613 103.675 120.613 103.808C120.613 103.957 120.688 104.072 120.837 104.152C120.987 104.227 121.219 104.304 121.533 104.384C121.853 104.464 122.117 104.547 122.325 104.632C122.533 104.717 122.712 104.851 122.861 105.032C123.016 105.208 123.096 105.443 123.101 105.736C123.101 105.992 123.029 106.221 122.885 106.424C122.747 106.627 122.544 106.787 122.277 106.904C122.016 107.016 121.709 107.072 121.357 107.072ZM125.325 103.488V105.632C125.325 105.781 125.359 105.891 125.429 105.96C125.503 106.024 125.626 106.056 125.797 106.056H126.317V107H125.613C124.669 107 124.197 106.541 124.197 105.624V103.488H123.669V102.568H124.197V101.472H125.325V102.568H126.317V103.488H125.325ZM129.618 102.504C129.954 102.504 130.253 102.579 130.514 102.728C130.776 102.872 130.978 103.088 131.122 103.376C131.272 103.659 131.346 104 131.346 104.4V107H130.226V104.552C130.226 104.2 130.138 103.931 129.962 103.744C129.786 103.552 129.546 103.456 129.242 103.456C128.933 103.456 128.688 103.552 128.506 103.744C128.33 103.931 128.242 104.2 128.242 104.552V107H127.122V101.08H128.242V103.12C128.386 102.928 128.578 102.779 128.818 102.672C129.058 102.56 129.325 102.504 129.618 102.504ZM132.123 104.768C132.123 104.32 132.211 103.923 132.387 103.576C132.569 103.229 132.811 102.963 133.115 102.776C133.425 102.589 133.769 102.496 134.147 102.496C134.478 102.496 134.766 102.563 135.011 102.696C135.262 102.829 135.462 102.997 135.611 103.2V102.568H136.739V107H135.611V106.352C135.467 106.56 135.267 106.733 135.011 106.872C134.761 107.005 134.47 107.072 134.139 107.072C133.766 107.072 133.425 106.976 133.115 106.784C132.811 106.592 132.569 106.323 132.387 105.976C132.211 105.624 132.123 105.221 132.123 104.768ZM135.611 104.784C135.611 104.512 135.558 104.28 135.451 104.088C135.345 103.891 135.201 103.741 135.019 103.64C134.838 103.533 134.643 103.48 134.435 103.48C134.227 103.48 134.035 103.531 133.859 103.632C133.683 103.733 133.539 103.883 133.427 104.08C133.321 104.272 133.267 104.501 133.267 104.768C133.267 105.035 133.321 105.269 133.427 105.472C133.539 105.669 133.683 105.821 133.859 105.928C134.041 106.035 134.233 106.088 134.435 106.088C134.643 106.088 134.838 106.037 135.019 105.936C135.201 105.829 135.345 105.68 135.451 105.488C135.558 105.291 135.611 105.056 135.611 104.784ZM140.289 102.504C140.817 102.504 141.244 102.672 141.569 103.008C141.895 103.339 142.057 103.803 142.057 104.4V107H140.937V104.552C140.937 104.2 140.849 103.931 140.673 103.744C140.497 103.552 140.257 103.456 139.953 103.456C139.644 103.456 139.399 103.552 139.217 103.744C139.041 103.931 138.953 104.2 138.953 104.552V107H137.833V102.568H138.953V103.12C139.103 102.928 139.292 102.779 139.521 102.672C139.756 102.56 140.012 102.504 140.289 102.504ZM146.654 108.379C146.201 107.94 145.849 107.38 145.597 106.699C145.349 106.018 145.226 105.287 145.226 104.508C145.226 103.71 145.356 102.961 145.618 102.261C145.879 101.556 146.259 100.98 146.759 100.532H147.746V100.623C147.232 101.113 146.84 101.701 146.57 102.387C146.304 103.073 146.171 103.78 146.171 104.508C146.171 105.217 146.297 105.903 146.549 106.566C146.805 107.224 147.169 107.796 147.641 108.281V108.379H146.654ZM150.877 107L149.799 105.096H149.337V107H148.357V102.114H150.191C150.569 102.114 150.891 102.182 151.157 102.317C151.423 102.448 151.621 102.627 151.752 102.856C151.887 103.08 151.955 103.332 151.955 103.612C151.955 103.934 151.862 104.226 151.675 104.487C151.488 104.744 151.211 104.921 150.842 105.019L152.011 107H150.877ZM149.337 104.361H150.156C150.422 104.361 150.62 104.298 150.751 104.172C150.882 104.041 150.947 103.862 150.947 103.633C150.947 103.409 150.882 103.236 150.751 103.115C150.62 102.989 150.422 102.926 150.156 102.926H149.337V104.361ZM155.69 102.114V105.544C155.69 106.02 155.553 106.391 155.277 106.657C155.002 106.918 154.633 107.049 154.171 107.049C153.705 107.049 153.327 106.914 153.037 106.643C152.753 106.372 152.61 105.994 152.61 105.509H153.59C153.595 105.719 153.644 105.882 153.737 105.999C153.835 106.116 153.975 106.174 154.157 106.174C154.335 106.174 154.47 106.118 154.563 106.006C154.657 105.894 154.703 105.74 154.703 105.544V102.114H155.69ZM156.582 108.379V108.281C157.053 107.796 157.415 107.224 157.667 106.566C157.923 105.903 158.052 105.217 158.052 104.508C158.052 103.78 157.916 103.073 157.646 102.387C157.38 101.701 156.99 101.113 156.477 100.623V100.532H157.464C157.963 100.98 158.343 101.556 158.605 102.261C158.866 102.961 158.997 103.71 158.997 104.508C158.997 105.287 158.871 106.018 158.619 106.699C158.371 107.38 158.021 107.94 157.569 108.379H156.582ZM51.624 115.144C51.624 115.443 51.552 115.723 51.408 115.984C51.2693 116.245 51.048 116.456 50.744 116.616C50.4453 116.776 50.0667 116.856 49.608 116.856H48.672V119H47.552V113.416H49.608C50.04 113.416 50.408 113.491 50.712 113.64C51.016 113.789 51.2427 113.995 51.392 114.256C51.5467 114.517 51.624 114.813 51.624 115.144ZM49.56 115.952C49.8693 115.952 50.0987 115.883 50.248 115.744C50.3973 115.6 50.472 115.4 50.472 115.144C50.472 114.6 50.168 114.328 49.56 114.328H48.672V115.952H49.56ZM52.9872 114.04C52.7899 114.04 52.6245 113.979 52.4912 113.856C52.3632 113.728 52.2992 113.571 52.2992 113.384C52.2992 113.197 52.3632 113.043 52.4912 112.92C52.6245 112.792 52.7899 112.728 52.9872 112.728C53.1845 112.728 53.3472 112.792 53.4752 112.92C53.6085 113.043 53.6752 113.197 53.6752 113.384C53.6752 113.571 53.6085 113.728 53.4752 113.856C53.3472 113.979 53.1845 114.04 52.9872 114.04ZM53.5392 114.568V119H52.4192V114.568H53.5392ZM57.1018 114.504C57.6298 114.504 58.0564 114.672 58.3818 115.008C58.7071 115.339 58.8698 115.803 58.8698 116.4V119H57.7498V116.552C57.7498 116.2 57.6618 115.931 57.4858 115.744C57.3098 115.552 57.0698 115.456 56.7658 115.456C56.4564 115.456 56.2111 115.552 56.0298 115.744C55.8538 115.931 55.7658 116.2 55.7658 116.552V119H54.6458V114.568H55.7658V115.12C55.9151 114.928 56.1044 114.779 56.3338 114.672C56.5684 114.56 56.8244 114.504 57.1018 114.504ZM59.6468 116.784C59.6468 116.325 59.7401 115.925 59.9268 115.584C60.1135 115.237 60.3721 114.971 60.7028 114.784C61.0335 114.592 61.4121 114.496 61.8388 114.496C62.3881 114.496 62.8415 114.635 63.1988 114.912C63.5615 115.184 63.8041 115.568 63.9268 116.064H62.7188C62.6548 115.872 62.5455 115.723 62.3908 115.616C62.2415 115.504 62.0548 115.448 61.8308 115.448C61.5108 115.448 61.2575 115.565 61.0708 115.8C60.8841 116.029 60.7908 116.357 60.7908 116.784C60.7908 117.205 60.8841 117.533 61.0708 117.768C61.2575 117.997 61.5108 118.112 61.8308 118.112C62.2841 118.112 62.5801 117.909 62.7188 117.504H63.9268C63.8041 117.984 63.5615 118.365 63.1988 118.648C62.8361 118.931 62.3828 119.072 61.8388 119.072C61.4121 119.072 61.0335 118.979 60.7028 118.792C60.3721 118.6 60.1135 118.333 59.9268 117.992C59.7401 117.645 59.6468 117.243 59.6468 116.784ZM66.7153 119.072C66.2886 119.072 65.9046 118.979 65.5633 118.792C65.222 118.6 64.9526 118.331 64.7553 117.984C64.5633 117.637 64.4673 117.237 64.4673 116.784C64.4673 116.331 64.566 115.931 64.7633 115.584C64.966 115.237 65.2406 114.971 65.5873 114.784C65.934 114.592 66.3206 114.496 66.7473 114.496C67.174 114.496 67.5606 114.592 67.9073 114.784C68.254 114.971 68.526 115.237 68.7233 115.584C68.926 115.931 69.0273 116.331 69.0273 116.784C69.0273 117.237 68.9233 117.637 68.7153 117.984C68.5126 118.331 68.2353 118.6 67.8833 118.792C67.5366 118.979 67.1473 119.072 66.7153 119.072ZM66.7153 118.096C66.918 118.096 67.1073 118.048 67.2833 117.952C67.4646 117.851 67.6086 117.701 67.7153 117.504C67.822 117.307 67.8753 117.067 67.8753 116.784C67.8753 116.363 67.7633 116.04 67.5393 115.816C67.3206 115.587 67.0513 115.472 66.7313 115.472C66.4113 115.472 66.142 115.587 65.9233 115.816C65.71 116.04 65.6033 116.363 65.6033 116.784C65.6033 117.205 65.7073 117.531 65.9153 117.76C66.1286 117.984 66.3953 118.096 66.7153 118.096ZM69.5609 116.768C69.5609 116.32 69.6489 115.923 69.8249 115.576C70.0062 115.229 70.2515 114.963 70.5609 114.776C70.8702 114.589 71.2142 114.496 71.5929 114.496C71.8809 114.496 72.1555 114.56 72.4169 114.688C72.6782 114.811 72.8862 114.976 73.0409 115.184V113.08H74.1769V119H73.0409V118.344C72.9022 118.563 72.7075 118.739 72.4569 118.872C72.2062 119.005 71.9155 119.072 71.5849 119.072C71.2115 119.072 70.8702 118.976 70.5609 118.784C70.2515 118.592 70.0062 118.323 69.8249 117.976C69.6489 117.624 69.5609 117.221 69.5609 116.768ZM73.0489 116.784C73.0489 116.512 72.9955 116.28 72.8889 116.088C72.7822 115.891 72.6382 115.741 72.4569 115.64C72.2755 115.533 72.0809 115.48 71.8729 115.48C71.6649 115.48 71.4729 115.531 71.2969 115.632C71.1209 115.733 70.9769 115.883 70.8649 116.08C70.7582 116.272 70.7049 116.501 70.7049 116.768C70.7049 117.035 70.7582 117.269 70.8649 117.472C70.9769 117.669 71.1209 117.821 71.2969 117.928C71.4782 118.035 71.6702 118.088 71.8729 118.088C72.0809 118.088 72.2755 118.037 72.4569 117.936C72.6382 117.829 72.7822 117.68 72.8889 117.488C72.9955 117.291 73.0489 117.056 73.0489 116.784ZM79.3908 116.688C79.3908 116.848 79.3801 116.992 79.3588 117.12H76.1188C76.1454 117.44 76.2574 117.691 76.4548 117.872C76.6521 118.053 76.8948 118.144 77.1828 118.144C77.5988 118.144 77.8948 117.965 78.0708 117.608H79.2788C79.1508 118.035 78.9054 118.387 78.5428 118.664C78.1801 118.936 77.7348 119.072 77.2068 119.072C76.7801 119.072 76.3961 118.979 76.0548 118.792C75.7188 118.6 75.4548 118.331 75.2628 117.984C75.0761 117.637 74.9827 117.237 74.9827 116.784C74.9827 116.325 75.0761 115.923 75.2628 115.576C75.4494 115.229 75.7108 114.963 76.0468 114.776C76.3828 114.589 76.7694 114.496 77.2068 114.496C77.6281 114.496 78.0041 114.587 78.3348 114.768C78.6708 114.949 78.9294 115.208 79.1108 115.544C79.2974 115.875 79.3908 116.256 79.3908 116.688ZM78.2308 116.368C78.2254 116.08 78.1214 115.851 77.9188 115.68C77.7161 115.504 77.4681 115.416 77.1748 115.416C76.8974 115.416 76.6628 115.501 76.4708 115.672C76.2841 115.837 76.1694 116.069 76.1268 116.368H78.2308ZM80.7043 119.056C80.5016 119.056 80.3336 118.995 80.2003 118.872C80.0723 118.744 80.0083 118.587 80.0083 118.4C80.0083 118.213 80.0723 118.059 80.2003 117.936C80.3336 117.808 80.5016 117.744 80.7043 117.744C80.9016 117.744 81.0643 117.808 81.1923 117.936C81.3203 118.059 81.3843 118.213 81.3843 118.4C81.3843 118.587 81.3203 118.744 81.1923 118.872C81.0643 118.995 80.9016 119.056 80.7043 119.056ZM80.7043 115.744C80.5016 115.744 80.3336 115.683 80.2003 115.56C80.0723 115.432 80.0083 115.275 80.0083 115.088C80.0083 114.901 80.0723 114.747 80.2003 114.624C80.3336 114.496 80.5016 114.432 80.7043 114.432C80.9016 114.432 81.0643 114.496 81.1923 114.624C81.3203 114.747 81.3843 114.901 81.3843 115.088C81.3843 115.275 81.3203 115.432 81.1923 115.56C81.0643 115.683 80.9016 115.744 80.7043 115.744ZM85.7178 115.672V116.616H82.3258V115.672H85.7178ZM86.8619 114.704C86.8885 114.171 87.0752 113.76 87.4219 113.472C87.7739 113.179 88.2352 113.032 88.8059 113.032C89.1952 113.032 89.5285 113.101 89.8059 113.24C90.0832 113.373 90.2912 113.557 90.4299 113.792C90.5739 114.021 90.6459 114.283 90.6459 114.576C90.6459 114.912 90.5579 115.197 90.3819 115.432C90.2112 115.661 90.0059 115.816 89.7659 115.896V115.928C90.0752 116.024 90.3152 116.195 90.4859 116.44C90.6619 116.685 90.7499 117 90.7499 117.384C90.7499 117.704 90.6752 117.989 90.5259 118.24C90.3819 118.491 90.1659 118.688 89.8779 118.832C89.5952 118.971 89.2539 119.04 88.8539 119.04C88.2512 119.04 87.7605 118.888 87.3819 118.584C87.0032 118.28 86.8032 117.832 86.7819 117.24H87.8699C87.8805 117.501 87.9685 117.712 88.1339 117.872C88.3045 118.027 88.5365 118.104 88.8299 118.104C89.1019 118.104 89.3099 118.029 89.4539 117.88C89.6032 117.725 89.6779 117.528 89.6779 117.288C89.6779 116.968 89.5765 116.739 89.3739 116.6C89.1712 116.461 88.8565 116.392 88.4299 116.392H88.1979V115.472H88.4299C89.1872 115.472 89.5659 115.219 89.5659 114.712C89.5659 114.483 89.4965 114.304 89.3579 114.176C89.2245 114.048 89.0299 113.984 88.7739 113.984C88.5232 113.984 88.3285 114.053 88.1899 114.192C88.0565 114.325 87.9792 114.496 87.9579 114.704H86.8619ZM91.6509 114.704C91.6776 114.171 91.8643 113.76 92.2109 113.472C92.5629 113.179 93.0243 113.032 93.5949 113.032C93.9843 113.032 94.3176 113.101 94.5949 113.24C94.8723 113.373 95.0803 113.557 95.2189 113.792C95.3629 114.021 95.4349 114.283 95.4349 114.576C95.4349 114.912 95.3469 115.197 95.1709 115.432C95.0003 115.661 94.7949 115.816 94.5549 115.896V115.928C94.8643 116.024 95.1043 116.195 95.2749 116.44C95.4509 116.685 95.5389 117 95.5389 117.384C95.5389 117.704 95.4643 117.989 95.3149 118.24C95.1709 118.491 94.9549 118.688 94.6669 118.832C94.3843 118.971 94.0429 119.04 93.6429 119.04C93.0403 119.04 92.5496 118.888 92.1709 118.584C91.7923 118.28 91.5923 117.832 91.5709 117.24H92.6589C92.6696 117.501 92.7576 117.712 92.9229 117.872C93.0936 118.027 93.3256 118.104 93.6189 118.104C93.8909 118.104 94.0989 118.029 94.2429 117.88C94.3923 117.725 94.4669 117.528 94.4669 117.288C94.4669 116.968 94.3656 116.739 94.1629 116.6C93.9603 116.461 93.6456 116.392 93.2189 116.392H92.9869V115.472H93.2189C93.9763 115.472 94.3549 115.219 94.3549 114.712C94.3549 114.483 94.2856 114.304 94.1469 114.176C94.0136 114.048 93.8189 113.984 93.5629 113.984C93.3123 113.984 93.1176 114.053 92.9789 114.192C92.8456 114.325 92.7683 114.496 92.7469 114.704H91.6509ZM96.376 117.864V116.984L98.992 113.24H100.296V116.888H101V117.864H100.296V119H99.176V117.864H96.376ZM99.248 114.44L97.608 116.888H99.248V114.44ZM101.713 116.008C101.713 115.085 101.878 114.363 102.209 113.84C102.545 113.317 103.1 113.056 103.873 113.056C104.646 113.056 105.198 113.317 105.529 113.84C105.865 114.363 106.033 115.085 106.033 116.008C106.033 116.936 105.865 117.664 105.529 118.192C105.198 118.72 104.646 118.984 103.873 118.984C103.1 118.984 102.545 118.72 102.209 118.192C101.878 117.664 101.713 116.936 101.713 116.008ZM104.929 116.008C104.929 115.613 104.902 115.283 104.849 115.016C104.801 114.744 104.7 114.523 104.545 114.352C104.396 114.181 104.172 114.096 103.873 114.096C103.574 114.096 103.348 114.181 103.193 114.352C103.044 114.523 102.942 114.744 102.889 115.016C102.841 115.283 102.817 115.613 102.817 116.008C102.817 116.413 102.841 116.755 102.889 117.032C102.937 117.304 103.038 117.525 103.193 117.696C103.348 117.861 103.574 117.944 103.873 117.944C104.172 117.944 104.398 117.861 104.553 117.696C104.708 117.525 104.809 117.304 104.857 117.032C104.905 116.755 104.929 116.413 104.929 116.008ZM106.885 116.008C106.885 115.085 107.05 114.363 107.381 113.84C107.717 113.317 108.272 113.056 109.045 113.056C109.818 113.056 110.37 113.317 110.701 113.84C111.037 114.363 111.205 115.085 111.205 116.008C111.205 116.936 111.037 117.664 110.701 118.192C110.37 118.72 109.818 118.984 109.045 118.984C108.272 118.984 107.717 118.72 107.381 118.192C107.05 117.664 106.885 116.936 106.885 116.008ZM110.101 116.008C110.101 115.613 110.074 115.283 110.021 115.016C109.973 114.744 109.872 114.523 109.717 114.352C109.568 114.181 109.344 114.096 109.045 114.096C108.746 114.096 108.52 114.181 108.365 114.352C108.216 114.523 108.114 114.744 108.061 115.016C108.013 115.283 107.989 115.613 107.989 116.008C107.989 116.413 108.013 116.755 108.061 117.032C108.109 117.304 108.21 117.525 108.365 117.696C108.52 117.861 108.746 117.944 109.045 117.944C109.344 117.944 109.57 117.861 109.725 117.696C109.88 117.525 109.981 117.304 110.029 117.032C110.077 116.755 110.101 116.413 110.101 116.008ZM115.769 114.016L113.641 119H112.505L114.649 114.144H111.913V113.184H115.769V114.016Z" fill="black"/>
</svg>
